<?xml version="1.0" encoding="UTF-8"?>
<!DOCTYPE svg PUBLIC "-//W3C//DTD SVG 1.1//EN" "http://www.w3.org/Graphics/SVG/1.1/DTD/svg11.dtd">
<svg enable-background="new 0 0 97.946 205.583" viewBox="0 0 97.946 205.583" xml:space="preserve" xmlns="http://www.w3.org/2000/svg"><defs><pattern height="69" patternUnits="userSpaceOnUse" viewBox="2.125 -70.896 69 69" width="69" x="-347.783" y="408.589">
	
		<path d="m71.125-1.896h-69v-69h69z" fill="none"></path>
		<path d="m71.125-1.896h-69v-69h69z" fill="#f7bc60"></path>
		
			<path d="m61.772-71.653c.018.072.007.127-.026.19-.053.101-.112.062-.165.128-.05.062-.099.276-.079.362-.169.058-.01.227-.015.35-.002.05-.041.105-.045.161-.01.119.017.266.068.37 .097.198.268.413.435.544 .19.148.365.572.608.631 .177.042.384-.104.543-.143 .18-.043.397.01.571-.053 .222-.079.127-.337.288-.45 .104-.074.287-.01.406-.051 .2-.069.339-.263.376-.46 .016-.082.01-.145.039-.221 .039-.103.111-.16.09-.293-.01-.062-.052-.12-.064-.187-.022-.114.002-.224 0-.337-.003-.2.017-.379-.078-.55-.38-.688-1.236-.929-1.975-.789-.18.034-.287.126-.442.207-.17.088-.139.166-.318.224-.081.026-.216.124-.215.224 .001.115.005.051.012.169-.021.011-.021-.005-.03-.025" fill="#fff"></path>
			<path d="m54.105-71.653c.018.072.007.127-.026.19-.053.101-.112.062-.165.128-.05.062-.099.276-.079.362-.169.058-.01.227-.015.35-.002.05-.041.105-.045.161-.01.119.017.266.068.37 .097.198.268.413.435.544 .19.148.365.572.608.631 .177.042.384-.104.543-.143 .18-.043.397.01.571-.053 .222-.079.127-.337.288-.45 .104-.074.287-.01.406-.051 .2-.069.339-.263.376-.46 .016-.082.01-.145.039-.221 .039-.103.111-.16.09-.293-.01-.062-.052-.12-.064-.187-.022-.114.002-.224 0-.337-.003-.2.017-.379-.078-.55-.38-.688-1.236-.929-1.975-.789-.18.034-.287.126-.442.207-.17.088-.139.166-.318.224-.081.026-.216.124-.215.224 .001.115.005.051.012.169-.021.011-.021-.005-.03-.025" fill="#fff"></path>
			<path d="m46.439-71.653c.018.072.007.127-.026.19-.053.101-.112.062-.165.128-.05.062-.099.276-.079.362-.169.058-.01.227-.015.35-.002.05-.041.105-.045.161-.01.119.017.266.068.37 .097.198.268.413.435.544 .19.148.365.572.608.631 .177.042.384-.104.543-.143 .18-.043.397.01.571-.053 .222-.079.127-.337.288-.45 .104-.074.287-.01.406-.051 .2-.069.339-.263.376-.46 .016-.082.01-.145.039-.221 .039-.103.111-.16.09-.293-.01-.062-.052-.12-.064-.187-.022-.114.002-.224 0-.337-.003-.2.017-.379-.078-.55-.38-.688-1.236-.929-1.975-.789-.18.034-.287.126-.442.207-.17.088-.139.166-.318.224-.081.026-.216.124-.215.224 .001.115.005.051.012.169-.021.011-.021-.005-.03-.025" fill="#fff"></path>
			<path d="m38.772-71.653c.018.072.007.127-.026.19-.053.101-.112.062-.165.128-.05.062-.099.276-.079.362-.169.058-.01.227-.015.35-.002.05-.041.105-.045.161-.01.119.017.266.068.37 .097.198.268.413.435.544 .19.148.365.572.608.631 .177.042.384-.104.543-.143 .18-.043.397.01.571-.053 .222-.079.127-.337.288-.45 .104-.074.287-.01.406-.051 .2-.069.339-.263.376-.46 .016-.082.01-.145.039-.221 .039-.103.111-.16.09-.293-.01-.062-.052-.12-.064-.187-.022-.114.002-.224 0-.337-.003-.2.017-.379-.078-.55-.38-.688-1.236-.929-1.975-.789-.18.034-.287.126-.442.207-.17.088-.139.166-.318.224-.081.026-.216.124-.215.224 .001.115.005.051.012.169-.021.011-.021-.005-.03-.025" fill="#fff"></path>
			<path d="m31.105-71.653c.018.072.007.127-.026.19-.053.101-.112.062-.165.128-.05.062-.099.276-.079.362-.169.058-.01.227-.015.35-.002.05-.041.105-.045.161-.01.119.017.266.068.37 .097.198.268.413.435.544 .19.148.365.572.608.631 .177.042.384-.104.543-.143 .18-.043.397.01.571-.053 .222-.079.127-.337.288-.45 .104-.074.287-.01.406-.051 .2-.069.339-.263.376-.46 .016-.082.01-.145.039-.221 .039-.103.111-.16.09-.293-.01-.062-.052-.12-.064-.187-.022-.114.002-.224 0-.337-.003-.2.017-.379-.078-.55-.38-.688-1.236-.929-1.975-.789-.18.034-.287.126-.442.207-.17.088-.139.166-.318.224-.081.026-.216.124-.215.224 .001.115.005.051.012.169-.021.011-.021-.005-.03-.025" fill="#fff"></path>
			<path d="m23.439-71.653c.018.072.007.127-.026.19-.053.101-.112.062-.165.128-.05.062-.099.276-.079.362-.169.058-.01.227-.015.35-.002.05-.041.105-.045.161-.01.119.017.266.068.37 .097.198.268.413.435.544 .19.148.365.572.608.631 .177.042.384-.104.543-.143 .18-.043.397.01.571-.053 .222-.079.127-.337.288-.45 .104-.074.287-.01.406-.051 .2-.069.339-.263.376-.46 .016-.082.01-.145.039-.221 .039-.103.111-.16.09-.293-.01-.062-.052-.12-.064-.187-.022-.114.002-.224 0-.337-.003-.2.017-.379-.078-.55-.38-.688-1.236-.929-1.975-.789-.18.034-.287.126-.442.207-.17.088-.139.166-.318.224-.081.026-.216.124-.215.224 .001.115.005.051.012.169-.021.011-.021-.005-.03-.025" fill="#fff"></path>
			<path d="m15.772-71.653c.018.072.007.127-.026.19-.053.101-.112.062-.165.128-.05.062-.099.276-.079.362-.169.058-.01.227-.015.35-.002.05-.041.105-.045.161-.01.119.017.266.068.37 .097.198.268.413.435.544 .19.148.365.572.608.631 .177.042.384-.104.543-.143 .18-.043.397.01.571-.053 .222-.079.127-.337.288-.45 .104-.074.287-.01.406-.051 .2-.069.339-.263.376-.46 .016-.082.01-.145.039-.221 .039-.103.111-.16.09-.293-.01-.062-.052-.12-.064-.187-.022-.114.002-.224 0-.337-.003-.2.017-.379-.078-.55-.38-.688-1.236-.929-1.975-.789-.18.034-.287.126-.442.207-.17.088-.139.166-.318.224-.081.026-.216.124-.215.224 .001.115.005.051.012.169-.021.011-.021-.005-.03-.025" fill="#fff"></path>
			<path d="m8.105-71.653c.018.072.007.127-.026.19-.053.101-.112.062-.165.128-.05.062-.099.276-.079.362-.169.058-.01.227-.015.35-.002.05-.041.105-.045.161-.01.119.017.266.068.37 .097.198.268.413.435.544 .19.148.365.572.608.631 .177.042.384-.104.543-.143 .18-.043.397.01.571-.053 .222-.079.127-.337.288-.45 .104-.074.287-.01.406-.051 .2-.069.339-.263.376-.46 .016-.082.01-.145.039-.221 .039-.103.111-.16.09-.293-.01-.062-.052-.12-.064-.187-.022-.114.002-.224 0-.337-.003-.2.017-.379-.078-.55-.38-.688-1.236-.929-1.975-.789-.18.034-.287.126-.442.207-.17.088-.139.166-.318.224-.081.026-.216.124-.215.224 .001.115.005.051.012.169-.021.011-.021-.005-.03-.025" fill="#fff"></path>
			<path d="m.439-71.653c.018.072.008.127-.026.19-.052.101-.113.063-.165.128-.051.062-.099.276-.079.362-.169.058-.01.227-.015.35-.002.05-.041.105-.045.161-.01.119.017.266.068.37 .097.198.268.413.435.544 .19.148.365.572.608.631 .177.042.384-.104.543-.143 .18-.043.397.01.571-.053 .222-.079.127-.337.288-.45 .104-.074.287-.01.406-.051 .2-.07.339-.263.376-.46 .016-.082.01-.145.039-.221 .038-.103.111-.16.09-.293-.01-.062-.051-.12-.064-.187-.021-.114.002-.224 0-.337-.003-.2.017-.379-.078-.55-.38-.688-1.236-.929-1.975-.789-.18.034-.287.126-.442.207-.17.088-.139.166-.318.224-.081.026-.215.124-.215.224 .002.115.005.051.012.169-.021.011-.021-.005-.03-.025" fill="#fff"></path>
		
		
			<path d="m69.439-71.653c.018.072.008.127-.026.19-.052.101-.113.062-.165.128-.051.062-.099.276-.079.362-.169.058-.01.227-.015.35-.002.05-.041.105-.045.161-.01.119.017.266.068.37 .097.198.268.413.435.544 .19.148.365.572.608.631 .177.042.384-.104.543-.143 .18-.043.397.01.571-.053 .222-.079.127-.337.288-.45 .104-.074.287-.01.406-.051 .2-.07.339-.263.376-.46 .016-.082.01-.145.039-.221 .038-.103.111-.16.09-.293-.01-.062-.051-.12-.064-.187-.021-.114.002-.224 0-.337-.003-.2.017-.379-.078-.55-.38-.688-1.236-.929-1.975-.789-.18.034-.287.126-.442.207-.17.088-.139.166-.318.224-.081.026-.215.124-.215.224 .002.115.005.051.012.169-.021.011-.021-.005-.03-.025" fill="#fff"></path>
		
		<path d="m.495-71.653c.018.072.008.127-.026.19-.052.101-.113.062-.165.128-.051.062-.099.276-.079.362-.169.058-.01.227-.015.35-.002.05-.041.105-.045.161-.01.119.017.266.068.37 .097.198.268.413.435.544 .19.148.365.572.608.631 .177.042.384-.104.543-.143 .18-.043.397.01.571-.053 .222-.079.127-.337.288-.45 .104-.074.287-.01.406-.051 .2-.07.339-.263.376-.46 .016-.082.01-.145.039-.221 .038-.103.111-.16.09-.293-.01-.062-.051-.12-.064-.187-.021-.114.002-.224 0-.337-.003-.2.017-.379-.078-.55-.38-.688-1.236-.929-1.975-.789-.18.034-.287.126-.442.207-.17.088-.139.166-.318.224-.081.026-.215.124-.215.224 .003.116.006.052.013.17-.021.011-.021-.005-.03-.025" fill="#fff"></path>
		
			
				<path d="m69.439-64.001c.018.072.007.127-.026.19-.053.101-.112.062-.165.128-.05.062-.099.276-.079.362-.169.058-.01.227-.015.35-.002.05-.041.105-.045.161-.01.119.017.266.068.37 .097.198.268.413.435.544 .19.148.365.572.608.631 .177.042.384-.104.543-.143 .18-.043.397.01.571-.053 .222-.079.127-.337.288-.45 .104-.074.287-.01.406-.051 .2-.069.339-.263.376-.46 .016-.082.01-.145.039-.221 .039-.103.111-.16.09-.293-.01-.062-.052-.12-.064-.187-.022-.114.002-.224 0-.337-.003-.2.017-.379-.078-.55-.38-.688-1.236-.929-1.975-.789-.18.034-.287.126-.442.207-.17.088-.139.166-.318.224-.081.026-.216.124-.215.224 .001.115.005.051.012.169-.021.011-.021-.005-.03-.025" fill="#fff"></path>
				<path d="m61.778-64.001c.018.072.007.127-.026.19-.053.101-.112.062-.165.128-.05.062-.099.276-.079.362-.169.058-.009.227-.015.35-.002.05-.041.105-.045.161-.01.119.017.266.068.37 .097.198.268.413.435.544 .19.148.365.572.608.631 .177.042.384-.104.543-.143 .18-.043.397.01.571-.053 .222-.079.127-.337.288-.45 .104-.074.287-.01.406-.051 .2-.069.339-.263.376-.46 .016-.082.01-.145.039-.221 .039-.103.111-.16.09-.293-.01-.062-.052-.12-.064-.187-.022-.114.002-.224 0-.337-.003-.2.017-.379-.078-.55-.38-.688-1.236-.929-1.975-.789-.18.034-.287.126-.442.207-.17.088-.139.166-.318.224-.081.026-.216.124-.215.224 .001.115.005.051.012.169-.021.011-.021-.005-.03-.025" fill="#fff"></path>
				<path d="m54.118-64.001c.018.072.007.127-.026.19-.053.101-.112.062-.165.128-.05.062-.099.276-.079.362-.169.058-.009.227-.015.35-.002.05-.041.105-.045.161-.01.119.017.266.068.37 .097.198.268.413.435.544 .19.148.365.572.608.631 .177.042.384-.104.543-.143 .18-.043.397.01.571-.053 .222-.079.127-.337.288-.45 .104-.074.287-.01.406-.051 .2-.069.339-.263.376-.46 .016-.082.01-.145.039-.221 .039-.103.111-.16.09-.293-.01-.062-.052-.12-.064-.187-.022-.114.002-.224 0-.337-.003-.2.017-.379-.078-.55-.38-.688-1.236-.929-1.975-.789-.18.034-.287.126-.442.207-.17.088-.139.166-.318.224-.081.026-.216.124-.215.224 .001.115.005.051.012.169-.021.011-.021-.005-.03-.025" fill="#fff"></path>
				<path d="m46.458-64.001c.018.072.007.127-.026.19-.053.101-.112.062-.165.128-.05.062-.099.276-.079.362-.169.058-.009.227-.015.35-.002.05-.041.105-.045.161-.01.119.017.266.068.37 .097.198.268.413.435.544 .19.148.365.572.608.631 .177.042.384-.104.543-.143 .18-.043.397.01.571-.053 .222-.079.127-.337.288-.45 .104-.074.287-.01.406-.051 .2-.069.339-.263.376-.46 .016-.082.01-.145.039-.221 .039-.103.111-.16.09-.293-.01-.062-.052-.12-.064-.187-.022-.114.002-.224 0-.337-.003-.2.017-.379-.078-.55-.38-.688-1.236-.929-1.975-.789-.18.034-.287.126-.442.207-.17.088-.139.166-.318.224-.081.026-.216.124-.215.224 .001.115.005.051.012.169-.021.011-.021-.005-.03-.025" fill="#fff"></path>
				<path d="m38.797-64.001c.018.072.007.127-.026.19-.053.101-.112.062-.165.128-.05.062-.099.276-.079.362-.169.058-.009.227-.015.35-.002.05-.041.105-.045.161-.01.119.017.266.068.37 .097.198.268.413.435.544 .19.148.365.572.608.631 .177.042.384-.104.543-.143 .18-.043.397.01.571-.053 .222-.079.127-.337.288-.45 .104-.074.287-.01.406-.051 .2-.069.339-.263.376-.46 .016-.082.01-.145.039-.221 .039-.103.111-.16.09-.293-.01-.062-.052-.12-.064-.187-.022-.114.002-.224 0-.337-.003-.2.017-.379-.078-.55-.38-.688-1.236-.929-1.975-.789-.18.034-.287.126-.442.207-.17.088-.139.166-.318.224-.081.026-.216.124-.215.224 .001.115.005.051.012.169-.021.011-.021-.005-.03-.025" fill="#fff"></path>
				<path d="m31.137-64.001c.018.072.007.127-.026.19-.053.101-.112.062-.165.128-.05.062-.099.276-.079.362-.169.058-.009.227-.015.35-.002.05-.041.105-.045.161-.01.119.017.266.068.37 .097.198.268.413.435.544 .19.148.365.572.608.631 .177.042.384-.104.543-.143 .18-.043.397.01.571-.053 .222-.079.127-.337.288-.45 .104-.074.287-.01.406-.051 .2-.069.339-.263.376-.46 .016-.082.01-.145.039-.221 .039-.103.111-.16.09-.293-.01-.062-.052-.12-.064-.187-.022-.114.002-.224 0-.337-.003-.2.017-.379-.078-.55-.38-.688-1.236-.929-1.975-.789-.18.034-.287.126-.442.207-.17.088-.139.166-.318.224-.081.026-.216.124-.215.224 .001.115.005.051.012.169-.021.011-.021-.005-.03-.025" fill="#fff"></path>
				<path d="m23.477-64.001c.018.072.007.127-.026.19-.053.101-.112.062-.165.128-.05.062-.099.276-.079.362-.169.058-.009.227-.015.35-.002.05-.041.105-.045.161-.01.119.017.266.068.37 .097.198.268.413.435.544 .19.148.365.572.608.631 .177.042.384-.104.543-.143 .18-.043.397.01.571-.053 .222-.079.127-.337.288-.45 .104-.074.287-.01.406-.051 .2-.069.339-.263.376-.46 .016-.082.01-.145.039-.221 .039-.103.111-.16.09-.293-.01-.062-.052-.12-.064-.187-.022-.114.002-.224 0-.337-.003-.2.017-.379-.078-.55-.38-.688-1.236-.929-1.975-.789-.18.034-.287.126-.442.207-.17.088-.139.166-.318.224-.081.026-.216.124-.215.224 .001.115.005.051.012.169-.021.011-.021-.005-.03-.025" fill="#fff"></path>
				<path d="m15.816-64.001c.018.072.007.127-.026.19-.053.101-.112.062-.165.128-.05.062-.099.276-.079.362-.169.058-.009.227-.015.35-.002.05-.041.105-.045.161-.01.119.017.266.068.37 .097.198.268.413.435.544 .19.148.365.572.608.631 .177.042.384-.104.543-.143 .18-.043.397.01.571-.053 .222-.079.127-.337.288-.45 .104-.074.287-.01.406-.051 .2-.069.339-.263.376-.46 .016-.082.01-.145.039-.221 .039-.103.111-.16.09-.293-.01-.062-.052-.12-.064-.187-.022-.114.002-.224 0-.337-.003-.2.017-.379-.078-.55-.38-.688-1.236-.929-1.975-.789-.18.034-.287.126-.442.207-.17.088-.139.166-.318.224-.081.026-.216.124-.215.224 .001.115.005.051.012.169-.021.011-.021-.005-.03-.025" fill="#fff"></path>
				<path d="m8.156-64.001c.018.072.007.127-.026.19-.053.101-.112.062-.165.128-.05.062-.099.276-.079.362-.169.058-.009.227-.015.35-.002.05-.041.105-.045.161-.01.119.017.266.068.37 .097.198.268.413.435.544 .19.148.365.572.608.631 .177.042.384-.104.543-.143 .18-.043.397.01.571-.053 .222-.079.127-.337.288-.45 .104-.074.287-.01.406-.051 .2-.069.339-.263.376-.46 .016-.082.01-.145.039-.221 .039-.103.111-.16.09-.293-.01-.062-.052-.12-.064-.187-.022-.114.002-.224 0-.337-.003-.2.017-.379-.078-.55-.38-.688-1.236-.929-1.975-.789-.18.034-.287.126-.442.207-.17.088-.139.166-.318.224-.081.026-.216.124-.215.224 .001.115.005.051.012.169-.021.011-.021-.005-.03-.025" fill="#fff"></path>
				<path d="m.495-64.001c.018.072.007.127-.026.19-.053.101-.112.062-.165.128-.05.062-.099.276-.079.362-.169.058-.01.227-.015.35-.002.05-.041.105-.045.161-.01.119.017.266.068.37 .097.198.268.413.435.544 .19.148.365.572.608.631 .177.042.384-.104.543-.143 .181-.042.398.011.572-.052 .222-.079.127-.337.288-.45 .104-.074.287-.01.406-.051 .2-.069.339-.263.376-.46 .016-.082.01-.145.039-.221 .039-.103.111-.16.09-.293-.01-.062-.052-.12-.064-.187-.022-.114.002-.224 0-.337-.003-.2.017-.379-.078-.55-.38-.688-1.236-.929-1.975-.789-.18.034-.287.126-.442.207-.17.088-.139.166-.318.224-.081.026-.216.124-.215.224 .001.115.005.051.012.169-.021.011-.021-.005-.03-.025" fill="#fff"></path>
			
			
				<path d="m69.439-56.348c.018.072.007.127-.026.19-.053.101-.112.062-.165.128-.05.062-.099.276-.079.362-.169.058-.01.227-.015.35-.002.05-.041.105-.045.161-.01.119.017.266.068.37 .097.198.268.413.435.544 .19.148.365.572.608.631 .177.042.384-.104.543-.143 .18-.043.397.01.571-.053 .222-.079.127-.337.288-.45 .104-.074.287-.01.406-.051 .2-.069.339-.263.376-.46 .016-.082.01-.145.039-.221 .039-.103.111-.16.09-.293-.01-.062-.052-.12-.064-.187-.022-.114.002-.224 0-.337-.003-.2.017-.379-.078-.55-.38-.688-1.236-.929-1.975-.789-.18.034-.287.126-.442.207-.17.088-.139.166-.318.224-.081.026-.216.124-.215.224 .001.115.005.051.012.169-.021.011-.021-.005-.03-.025" fill="#fff"></path>
				<path d="m61.778-56.348c.018.072.007.127-.026.19-.053.101-.112.062-.165.128-.05.062-.099.276-.079.362-.169.058-.009.227-.015.35-.002.05-.041.105-.045.161-.01.119.017.266.068.37 .097.198.268.413.435.544 .19.148.365.572.608.631 .177.042.384-.104.543-.143 .18-.043.397.01.571-.053 .222-.079.127-.337.288-.45 .104-.074.287-.01.406-.051 .2-.069.339-.263.376-.46 .016-.082.01-.145.039-.221 .039-.103.111-.16.09-.293-.01-.062-.052-.12-.064-.187-.022-.114.002-.224 0-.337-.003-.2.017-.379-.078-.55-.38-.688-1.236-.929-1.975-.789-.18.034-.287.126-.442.207-.17.088-.139.166-.318.224-.081.026-.216.124-.215.224 .001.115.005.051.012.169-.021.011-.021-.005-.03-.025" fill="#fff"></path>
				<path d="m54.118-56.348c.018.072.007.127-.026.19-.053.101-.112.062-.165.128-.05.062-.099.276-.079.362-.169.058-.009.227-.015.35-.002.05-.041.105-.045.161-.01.119.017.266.068.37 .097.198.268.413.435.544 .19.148.365.572.608.631 .177.042.384-.104.543-.143 .18-.043.397.01.571-.053 .222-.079.127-.337.288-.45 .104-.074.287-.01.406-.051 .2-.069.339-.263.376-.46 .016-.082.01-.145.039-.221 .039-.103.111-.16.09-.293-.01-.062-.052-.12-.064-.187-.022-.114.002-.224 0-.337-.003-.2.017-.379-.078-.55-.38-.688-1.236-.929-1.975-.789-.18.034-.287.126-.442.207-.17.088-.139.166-.318.224-.081.026-.216.124-.215.224 .001.115.005.051.012.169-.021.011-.021-.005-.03-.025" fill="#fff"></path>
				<path d="m46.458-56.348c.018.072.007.127-.026.19-.053.101-.112.062-.165.128-.05.062-.099.276-.079.362-.169.058-.009.227-.015.35-.002.05-.041.105-.045.161-.01.119.017.266.068.37 .097.198.268.413.435.544 .19.148.365.572.608.631 .177.042.384-.104.543-.143 .18-.043.397.01.571-.053 .222-.079.127-.337.288-.45 .104-.074.287-.01.406-.051 .2-.069.339-.263.376-.46 .016-.082.01-.145.039-.221 .039-.103.111-.16.09-.293-.01-.062-.052-.12-.064-.187-.022-.114.002-.224 0-.337-.003-.2.017-.379-.078-.55-.38-.688-1.236-.929-1.975-.789-.18.034-.287.126-.442.207-.17.088-.139.166-.318.224-.081.026-.216.124-.215.224 .001.115.005.051.012.169-.021.011-.021-.005-.03-.025" fill="#fff"></path>
				<path d="m38.797-56.348c.018.072.007.127-.026.19-.053.101-.112.062-.165.128-.05.062-.099.276-.079.362-.169.058-.009.227-.015.35-.002.05-.041.105-.045.161-.01.119.017.266.068.37 .097.198.268.413.435.544 .19.148.365.572.608.631 .177.042.384-.104.543-.143 .18-.043.397.01.571-.053 .222-.079.127-.337.288-.45 .104-.074.287-.01.406-.051 .2-.069.339-.263.376-.46 .016-.082.01-.145.039-.221 .039-.103.111-.16.09-.293-.01-.062-.052-.12-.064-.187-.022-.114.002-.224 0-.337-.003-.2.017-.379-.078-.55-.38-.688-1.236-.929-1.975-.789-.18.034-.287.126-.442.207-.17.088-.139.166-.318.224-.081.026-.216.124-.215.224 .001.115.005.051.012.169-.021.011-.021-.005-.03-.025" fill="#fff"></path>
				<path d="m31.137-56.348c.018.072.007.127-.026.19-.053.101-.112.062-.165.128-.05.062-.099.276-.079.362-.169.058-.009.227-.015.35-.002.05-.041.105-.045.161-.01.119.017.266.068.37 .097.198.268.413.435.544 .19.148.365.572.608.631 .177.042.384-.104.543-.143 .18-.043.397.01.571-.053 .222-.079.127-.337.288-.45 .104-.074.287-.01.406-.051 .2-.069.339-.263.376-.46 .016-.082.01-.145.039-.221 .039-.103.111-.16.09-.293-.01-.062-.052-.12-.064-.187-.022-.114.002-.224 0-.337-.003-.2.017-.379-.078-.55-.38-.688-1.236-.929-1.975-.789-.18.034-.287.126-.442.207-.17.088-.139.166-.318.224-.081.026-.216.124-.215.224 .001.115.005.051.012.169-.021.011-.021-.005-.03-.025" fill="#fff"></path>
				<path d="m23.477-56.348c.018.072.007.127-.026.19-.053.101-.112.062-.165.128-.05.062-.099.276-.079.362-.169.058-.009.227-.015.35-.002.05-.041.105-.045.161-.01.119.017.266.068.37 .097.198.268.413.435.544 .19.148.365.572.608.631 .177.042.384-.104.543-.143 .18-.043.397.01.571-.053 .222-.079.127-.337.288-.45 .104-.074.287-.01.406-.051 .2-.069.339-.263.376-.46 .016-.082.01-.145.039-.221 .039-.103.111-.16.09-.293-.01-.062-.052-.12-.064-.187-.022-.114.002-.224 0-.337-.003-.2.017-.379-.078-.55-.38-.688-1.236-.929-1.975-.789-.18.034-.287.126-.442.207-.17.088-.139.166-.318.224-.081.026-.216.124-.215.224 .001.115.005.051.012.169-.021.011-.021-.005-.03-.025" fill="#fff"></path>
				<path d="m15.816-56.348c.018.072.007.127-.026.19-.053.101-.112.062-.165.128-.05.062-.099.276-.079.362-.169.058-.009.227-.015.35-.002.05-.041.105-.045.161-.01.119.017.266.068.37 .097.198.268.413.435.544 .19.148.365.572.608.631 .177.042.384-.104.543-.143 .18-.043.397.01.571-.053 .222-.079.127-.337.288-.45 .104-.074.287-.01.406-.051 .2-.069.339-.263.376-.46 .016-.082.01-.145.039-.221 .039-.103.111-.16.09-.293-.01-.062-.052-.12-.064-.187-.022-.114.002-.224 0-.337-.003-.2.017-.379-.078-.55-.38-.688-1.236-.929-1.975-.789-.18.034-.287.126-.442.207-.17.088-.139.166-.318.224-.081.026-.216.124-.215.224 .001.115.005.051.012.169-.021.011-.021-.005-.03-.025" fill="#fff"></path>
				<path d="m8.156-56.348c.018.072.007.127-.026.19-.053.101-.112.062-.165.128-.05.062-.099.276-.079.362-.169.058-.009.227-.015.35-.002.05-.041.105-.045.161-.01.119.017.266.068.37 .097.198.268.413.435.544 .19.148.365.572.608.631 .177.042.384-.104.543-.143 .18-.043.397.01.571-.053 .222-.079.127-.337.288-.45 .104-.074.287-.01.406-.051 .2-.069.339-.263.376-.46 .016-.082.01-.145.039-.221 .039-.103.111-.16.09-.293-.01-.062-.052-.12-.064-.187-.022-.114.002-.224 0-.337-.003-.2.017-.379-.078-.55-.38-.688-1.236-.929-1.975-.789-.18.034-.287.126-.442.207-.17.088-.139.166-.318.224-.081.026-.216.124-.215.224 .001.115.005.051.012.169-.021.011-.021-.005-.03-.025" fill="#fff"></path>
				<path d="m.495-56.348c.018.072.007.127-.026.19-.053.101-.112.062-.165.128-.05.062-.099.276-.079.362-.169.058-.01.227-.015.35-.002.05-.041.105-.045.161-.01.119.017.266.068.37 .097.198.268.413.435.544 .19.148.365.572.608.631 .177.042.384-.104.543-.143 .18-.043.397.01.571-.053 .222-.079.127-.337.288-.45 .104-.074.287-.01.406-.051 .2-.069.339-.263.376-.46 .016-.082.01-.145.039-.221 .039-.103.111-.16.09-.293-.01-.062-.052-.12-.064-.187-.022-.114.002-.224 0-.337-.003-.2.017-.379-.078-.55-.38-.688-1.236-.929-1.975-.789-.18.034-.287.126-.442.207-.17.088-.139.166-.318.224-.081.026-.216.124-.215.224 .003.117.006.053.013.171-.021.011-.021-.005-.03-.025" fill="#fff"></path>
			
			
				<path d="m69.439-48.695c.018.072.007.127-.026.19-.053.101-.112.062-.165.128-.05.062-.099.276-.079.362-.169.058-.01.227-.015.35-.002.05-.041.105-.045.161-.01.119.017.266.068.37 .097.198.268.413.435.544 .19.148.365.572.608.631 .177.042.384-.104.543-.143 .18-.043.397.01.571-.053 .222-.079.127-.337.288-.45 .104-.074.287-.01.406-.051 .2-.069.339-.263.376-.46 .016-.082.01-.145.039-.221 .039-.103.111-.16.09-.293-.01-.062-.052-.12-.064-.187-.022-.114.002-.224 0-.337-.003-.2.017-.379-.078-.55-.38-.688-1.236-.929-1.975-.789-.18.034-.287.126-.442.207-.17.088-.139.166-.318.224-.081.026-.216.124-.215.224 .001.115.005.051.012.169-.021.011-.021-.005-.03-.025" fill="#fff"></path>
				<path d="m61.778-48.695c.018.072.007.127-.026.19-.053.101-.112.062-.165.128-.05.062-.099.276-.079.362-.169.058-.009.227-.015.35-.002.05-.041.105-.045.161-.01.119.017.266.068.37 .097.198.268.413.435.544 .19.148.365.572.608.631 .177.042.384-.104.543-.143 .18-.043.397.01.571-.053 .222-.079.127-.337.288-.45 .104-.074.287-.01.406-.051 .2-.069.339-.263.376-.46 .016-.082.01-.145.039-.221 .039-.103.111-.16.09-.293-.01-.062-.052-.12-.064-.187-.022-.114.002-.224 0-.337-.003-.2.017-.379-.078-.55-.38-.688-1.236-.929-1.975-.789-.18.034-.287.126-.442.207-.17.088-.139.166-.318.224-.081.026-.216.124-.215.224 .001.115.005.051.012.169-.021.011-.021-.005-.03-.025" fill="#fff"></path>
				<path d="m54.118-48.695c.018.072.007.127-.026.19-.053.101-.112.062-.165.128-.05.062-.099.276-.079.362-.169.058-.009.227-.015.35-.002.05-.041.105-.045.161-.01.119.017.266.068.37 .097.198.268.413.435.544 .19.148.365.572.608.631 .177.042.384-.104.543-.143 .18-.043.397.01.571-.053 .222-.079.127-.337.288-.45 .104-.074.287-.01.406-.051 .2-.069.339-.263.376-.46 .016-.082.01-.145.039-.221 .039-.103.111-.16.09-.293-.01-.062-.052-.12-.064-.187-.022-.114.002-.224 0-.337-.003-.2.017-.379-.078-.55-.38-.688-1.236-.929-1.975-.789-.18.034-.287.126-.442.207-.17.088-.139.166-.318.224-.081.026-.216.124-.215.224 .001.115.005.051.012.169-.021.011-.021-.005-.03-.025" fill="#fff"></path>
				<path d="m46.458-48.695c.018.072.007.127-.026.19-.053.101-.112.062-.165.128-.05.062-.099.276-.079.362-.169.058-.009.227-.015.35-.002.05-.041.105-.045.161-.01.119.017.266.068.37 .097.198.268.413.435.544 .19.148.365.572.608.631 .177.042.384-.104.543-.143 .18-.043.397.01.571-.053 .222-.079.127-.337.288-.45 .104-.074.287-.01.406-.051 .2-.069.339-.263.376-.46 .016-.082.01-.145.039-.221 .039-.103.111-.16.09-.293-.01-.062-.052-.12-.064-.187-.022-.114.002-.224 0-.337-.003-.2.017-.379-.078-.55-.38-.688-1.236-.929-1.975-.789-.18.034-.287.126-.442.207-.17.088-.139.166-.318.224-.081.026-.216.124-.215.224 .001.115.005.051.012.169-.021.011-.021-.005-.03-.025" fill="#fff"></path>
				<path d="m38.797-48.695c.018.072.007.127-.026.19-.053.101-.112.062-.165.128-.05.062-.099.276-.079.362-.169.058-.009.227-.015.35-.002.05-.041.105-.045.161-.01.119.017.266.068.37 .097.198.268.413.435.544 .19.148.365.572.608.631 .177.042.384-.104.543-.143 .18-.043.397.01.571-.053 .222-.079.127-.337.288-.45 .104-.074.287-.01.406-.051 .2-.069.339-.263.376-.46 .016-.082.01-.145.039-.221 .039-.103.111-.16.09-.293-.01-.062-.052-.12-.064-.187-.022-.114.002-.224 0-.337-.003-.2.017-.379-.078-.55-.38-.688-1.236-.929-1.975-.789-.18.034-.287.126-.442.207-.17.088-.139.166-.318.224-.081.026-.216.124-.215.224 .001.115.005.051.012.169-.021.011-.021-.005-.03-.025" fill="#fff"></path>
				<path d="m31.137-48.695c.018.072.007.127-.026.19-.053.101-.112.062-.165.128-.05.062-.099.276-.079.362-.169.058-.009.227-.015.35-.002.05-.041.105-.045.161-.01.119.017.266.068.37 .097.198.268.413.435.544 .19.148.365.572.608.631 .177.042.384-.104.543-.143 .18-.043.397.01.571-.053 .222-.079.127-.337.288-.45 .104-.074.287-.01.406-.051 .2-.069.339-.263.376-.46 .016-.082.01-.145.039-.221 .039-.103.111-.16.09-.293-.01-.062-.052-.12-.064-.187-.022-.114.002-.224 0-.337-.003-.2.017-.379-.078-.55-.38-.688-1.236-.929-1.975-.789-.18.034-.287.126-.442.207-.17.088-.139.166-.318.224-.081.026-.216.124-.215.224 .001.115.005.051.012.169-.021.011-.021-.005-.03-.025" fill="#fff"></path>
				<path d="m23.477-48.695c.018.072.007.127-.026.19-.053.101-.112.062-.165.128-.05.062-.099.276-.079.362-.169.058-.009.227-.015.35-.002.05-.041.105-.045.161-.01.119.017.266.068.37 .097.198.268.413.435.544 .19.148.365.572.608.631 .177.042.384-.104.543-.143 .18-.043.397.01.571-.053 .222-.079.127-.337.288-.45 .104-.074.287-.01.406-.051 .2-.069.339-.263.376-.46 .016-.082.01-.145.039-.221 .039-.103.111-.16.09-.293-.01-.062-.052-.12-.064-.187-.022-.114.002-.224 0-.337-.003-.2.017-.379-.078-.55-.38-.688-1.236-.929-1.975-.789-.18.034-.287.126-.442.207-.17.088-.139.166-.318.224-.081.026-.216.124-.215.224 .001.115.005.051.012.169-.021.011-.021-.005-.03-.025" fill="#fff"></path>
				<path d="m15.816-48.695c.018.072.007.127-.026.19-.053.101-.112.062-.165.128-.05.062-.099.276-.079.362-.169.058-.009.227-.015.35-.002.05-.041.105-.045.161-.01.119.017.266.068.37 .097.198.268.413.435.544 .19.148.365.572.608.631 .177.042.384-.104.543-.143 .18-.043.397.01.571-.053 .222-.079.127-.337.288-.45 .104-.074.287-.01.406-.051 .2-.069.339-.263.376-.46 .016-.082.01-.145.039-.221 .039-.103.111-.16.09-.293-.01-.062-.052-.12-.064-.187-.022-.114.002-.224 0-.337-.003-.2.017-.379-.078-.55-.38-.688-1.236-.929-1.975-.789-.18.034-.287.126-.442.207-.17.088-.139.166-.318.224-.081.026-.216.124-.215.224 .001.115.005.051.012.169-.021.011-.021-.005-.03-.025" fill="#fff"></path>
				<path d="m8.156-48.695c.018.072.007.127-.026.19-.053.101-.112.062-.165.128-.05.062-.099.276-.079.362-.169.058-.009.227-.015.35-.002.05-.041.105-.045.161-.01.119.017.266.068.37 .097.198.268.413.435.544 .19.148.365.572.608.631 .177.042.384-.104.543-.143 .18-.043.397.01.571-.053 .222-.079.127-.337.288-.45 .104-.074.287-.01.406-.051 .2-.069.339-.263.376-.46 .016-.082.01-.145.039-.221 .039-.103.111-.16.09-.293-.01-.062-.052-.12-.064-.187-.022-.114.002-.224 0-.337-.003-.2.017-.379-.078-.55-.38-.688-1.236-.929-1.975-.789-.18.034-.287.126-.442.207-.17.088-.139.166-.318.224-.081.026-.216.124-.215.224 .001.115.005.051.012.169-.021.011-.021-.005-.03-.025" fill="#fff"></path>
				<path d="m.495-48.695c.018.072.007.127-.026.19-.053.101-.112.062-.165.128-.05.062-.099.276-.079.362-.169.058-.01.227-.015.35-.002.05-.041.105-.045.161-.01.119.017.266.068.37 .097.198.268.413.435.544 .19.148.365.572.608.631 .177.042.384-.104.543-.143 .18-.043.397.01.571-.053 .222-.079.127-.337.288-.45 .104-.074.287-.01.406-.051 .2-.069.339-.263.376-.46 .016-.082.01-.145.039-.221 .039-.103.111-.16.09-.293-.01-.062-.052-.12-.064-.187-.022-.114.002-.224 0-.337-.003-.2.017-.379-.078-.55-.38-.688-1.236-.929-1.975-.789-.18.034-.287.126-.442.207-.17.088-.139.166-.318.224-.081.026-.216.124-.215.224 .001.115.005.051.012.169-.021.011-.021-.005-.03-.025" fill="#fff"></path>
			
			
				<path d="m69.439-41.042c.018.072.007.127-.026.19-.053.101-.112.062-.165.128-.05.062-.099.276-.079.362-.169.058-.01.227-.015.35-.002.05-.041.105-.045.161-.01.119.017.266.068.37 .097.198.268.413.435.544 .19.148.365.572.608.631 .177.042.384-.104.543-.143 .18-.043.397.01.571-.053 .222-.079.127-.337.288-.45 .104-.074.287-.01.406-.051 .2-.069.339-.263.376-.46 .016-.082.01-.145.039-.221 .039-.103.111-.16.09-.293-.01-.062-.052-.12-.064-.187-.022-.114.002-.224 0-.337-.003-.2.017-.379-.078-.55-.38-.688-1.236-.929-1.975-.789-.18.034-.287.126-.442.207-.17.088-.139.166-.318.224-.081.026-.216.124-.215.224 .001.115.005.051.012.169-.021.011-.021-.005-.03-.025" fill="#fff"></path>
				<path d="m61.778-41.042c.018.072.007.127-.026.19-.053.101-.112.062-.165.128-.05.062-.099.276-.079.362-.169.058-.009.227-.015.35-.002.05-.041.105-.045.161-.01.119.017.266.068.37 .097.198.268.413.435.544 .19.148.365.572.608.631 .177.042.384-.104.543-.143 .18-.043.397.01.571-.053 .222-.079.127-.337.288-.45 .104-.074.287-.01.406-.051 .2-.069.339-.263.376-.46 .016-.082.01-.145.039-.221 .039-.103.111-.16.09-.293-.01-.062-.052-.12-.064-.187-.022-.114.002-.224 0-.337-.003-.2.017-.379-.078-.55-.38-.688-1.236-.929-1.975-.789-.18.034-.287.126-.442.207-.17.088-.139.166-.318.224-.081.026-.216.124-.215.224 .001.115.005.051.012.169-.021.011-.021-.005-.03-.025" fill="#fff"></path>
				<path d="m54.118-41.042c.018.072.007.127-.026.19-.053.101-.112.062-.165.128-.05.062-.099.276-.079.362-.169.058-.009.227-.015.35-.002.05-.041.105-.045.161-.01.119.017.266.068.37 .097.198.268.413.435.544 .19.148.365.572.608.631 .177.042.384-.104.543-.143 .18-.043.397.01.571-.053 .222-.079.127-.337.288-.45 .104-.074.287-.01.406-.051 .2-.069.339-.263.376-.46 .016-.082.01-.145.039-.221 .039-.103.111-.16.09-.293-.01-.062-.052-.12-.064-.187-.022-.114.002-.224 0-.337-.003-.2.017-.379-.078-.55-.38-.688-1.236-.929-1.975-.789-.18.034-.287.126-.442.207-.17.088-.139.166-.318.224-.081.026-.216.124-.215.224 .001.115.005.051.012.169-.021.011-.021-.005-.03-.025" fill="#fff"></path>
				<path d="m46.458-41.042c.018.072.007.127-.026.19-.053.101-.112.062-.165.128-.05.062-.099.276-.079.362-.169.058-.009.227-.015.35-.002.05-.041.105-.045.161-.01.119.017.266.068.37 .097.198.268.413.435.544 .19.148.365.572.608.631 .177.042.384-.104.543-.143 .18-.043.397.01.571-.053 .222-.079.127-.337.288-.45 .104-.074.287-.01.406-.051 .2-.069.339-.263.376-.46 .016-.082.01-.145.039-.221 .039-.103.111-.16.09-.293-.01-.062-.052-.12-.064-.187-.022-.114.002-.224 0-.337-.003-.2.017-.379-.078-.55-.38-.688-1.236-.929-1.975-.789-.18.034-.287.126-.442.207-.17.088-.139.166-.318.224-.081.026-.216.124-.215.224 .001.115.005.051.012.169-.021.011-.021-.005-.03-.025" fill="#fff"></path>
				<path d="m38.797-41.042c.018.072.007.127-.026.19-.053.101-.112.062-.165.128-.05.062-.099.276-.079.362-.169.058-.009.227-.015.35-.002.05-.041.105-.045.161-.01.119.017.266.068.37 .097.198.268.413.435.544 .19.148.365.572.608.631 .177.042.384-.104.543-.143 .18-.043.397.01.571-.053 .222-.079.127-.337.288-.45 .104-.074.287-.01.406-.051 .2-.069.339-.263.376-.46 .016-.082.01-.145.039-.221 .039-.103.111-.16.09-.293-.01-.062-.052-.12-.064-.187-.022-.114.002-.224 0-.337-.003-.2.017-.379-.078-.55-.38-.688-1.236-.929-1.975-.789-.18.034-.287.126-.442.207-.17.088-.139.166-.318.224-.081.026-.216.124-.215.224 .001.115.005.051.012.169-.021.011-.021-.005-.03-.025" fill="#fff"></path>
				<path d="m31.137-41.042c.018.072.007.127-.026.19-.053.101-.112.062-.165.128-.05.062-.099.276-.079.362-.169.058-.009.227-.015.35-.002.05-.041.105-.045.161-.01.119.017.266.068.37 .097.198.268.413.435.544 .19.148.365.572.608.631 .177.042.384-.104.543-.143 .18-.043.397.01.571-.053 .222-.079.127-.337.288-.45 .104-.074.287-.01.406-.051 .2-.069.339-.263.376-.46 .016-.082.01-.145.039-.221 .039-.103.111-.16.09-.293-.01-.062-.052-.12-.064-.187-.022-.114.002-.224 0-.337-.003-.2.017-.379-.078-.55-.38-.688-1.236-.929-1.975-.789-.18.034-.287.126-.442.207-.17.088-.139.166-.318.224-.081.026-.216.124-.215.224 .001.115.005.051.012.169-.021.011-.021-.005-.03-.025" fill="#fff"></path>
				<path d="m23.477-41.042c.018.072.007.127-.026.19-.053.101-.112.062-.165.128-.05.062-.099.276-.079.362-.169.058-.009.227-.015.35-.002.05-.041.105-.045.161-.01.119.017.266.068.37 .097.198.268.413.435.544 .19.148.365.572.608.631 .177.042.384-.104.543-.143 .18-.043.397.01.571-.053 .222-.079.127-.337.288-.45 .104-.074.287-.01.406-.051 .2-.069.339-.263.376-.46 .016-.082.01-.145.039-.221 .039-.103.111-.16.09-.293-.01-.062-.052-.12-.064-.187-.022-.114.002-.224 0-.337-.003-.2.017-.379-.078-.55-.38-.688-1.236-.929-1.975-.789-.18.034-.287.126-.442.207-.17.088-.139.166-.318.224-.081.026-.216.124-.215.224 .001.115.005.051.012.169-.021.011-.021-.005-.03-.025" fill="#fff"></path>
				<path d="m15.816-41.042c.018.072.007.127-.026.19-.053.101-.112.062-.165.128-.05.062-.099.276-.079.362-.169.058-.009.227-.015.35-.002.05-.041.105-.045.161-.01.119.017.266.068.37 .097.198.268.413.435.544 .19.148.365.572.608.631 .177.042.384-.104.543-.143 .18-.043.397.01.571-.053 .222-.079.127-.337.288-.45 .104-.074.287-.01.406-.051 .2-.069.339-.263.376-.46 .016-.082.01-.145.039-.221 .039-.103.111-.16.09-.293-.01-.062-.052-.12-.064-.187-.022-.114.002-.224 0-.337-.003-.2.017-.379-.078-.55-.38-.688-1.236-.929-1.975-.789-.18.034-.287.126-.442.207-.17.088-.139.166-.318.224-.081.026-.216.124-.215.224 .001.115.005.051.012.169-.021.011-.021-.005-.03-.025" fill="#fff"></path>
				<path d="m8.156-41.042c.018.072.007.127-.026.19-.053.101-.112.062-.165.128-.05.062-.099.276-.079.362-.169.058-.009.227-.015.35-.002.05-.041.105-.045.161-.01.119.017.266.068.37 .097.198.268.413.435.544 .19.148.365.572.608.631 .177.042.384-.104.543-.143 .18-.043.397.01.571-.053 .222-.079.127-.337.288-.45 .104-.074.287-.01.406-.051 .2-.069.339-.263.376-.46 .016-.082.01-.145.039-.221 .039-.103.111-.16.09-.293-.01-.062-.052-.12-.064-.187-.022-.114.002-.224 0-.337-.003-.2.017-.379-.078-.55-.38-.688-1.236-.929-1.975-.789-.18.034-.287.126-.442.207-.17.088-.139.166-.318.224-.081.026-.216.124-.215.224 .001.115.005.051.012.169-.02.012-.021-.004-.03-.024" fill="#fff"></path>
				<path d="m.495-41.042c.018.072.007.127-.026.19-.053.101-.112.062-.165.128-.05.062-.099.276-.079.362-.169.058-.01.227-.015.35-.002.05-.041.105-.045.161-.01.119.017.266.068.37 .097.198.268.413.435.544 .19.148.365.572.608.631 .177.042.384-.104.543-.143 .18-.043.397.01.571-.053 .222-.079.127-.337.288-.45 .104-.074.287-.01.406-.051 .2-.069.339-.263.376-.46 .016-.082.01-.145.039-.221 .039-.103.111-.16.09-.293-.01-.062-.052-.12-.064-.187-.022-.114.002-.224 0-.337-.003-.2.017-.379-.078-.55-.38-.688-1.236-.929-1.975-.789-.18.034-.287.126-.442.207-.17.088-.139.166-.318.224-.081.026-.216.124-.215.224 .001.115.005.051.012.169-.021.011-.021-.005-.03-.025" fill="#fff"></path>
			
			
				<path d="m69.439-33.39c.018.072.007.127-.026.19-.053.101-.112.062-.165.128-.05.062-.099.276-.079.362-.169.058-.01.227-.015.35-.002.05-.041.105-.045.161-.01.119.017.266.068.37 .097.198.268.413.435.544 .19.148.365.572.608.631 .177.042.384-.104.543-.143 .18-.043.397.01.571-.053 .222-.079.127-.337.288-.45 .104-.074.287-.01.406-.051 .2-.069.339-.263.376-.46 .016-.082.01-.145.039-.221 .039-.103.111-.16.09-.293-.01-.062-.052-.12-.064-.187-.022-.114.002-.224 0-.337-.003-.2.017-.379-.078-.55-.38-.688-1.236-.929-1.975-.789-.18.034-.287.126-.442.207-.17.088-.139.166-.318.224-.081.026-.216.124-.215.224 .001.115.005.051.012.169-.021.011-.021-.005-.03-.025" fill="#fff"></path>
				<path d="m61.778-33.39c.018.072.007.127-.026.19-.053.101-.112.062-.165.128-.05.062-.099.276-.079.362-.169.058-.009.227-.015.35-.002.05-.041.105-.045.161-.01.119.017.266.068.37 .097.198.268.413.435.544 .19.148.365.572.608.631 .177.042.384-.104.543-.143 .18-.043.397.01.571-.053 .222-.079.127-.337.288-.45 .104-.074.287-.01.406-.051 .2-.069.339-.263.376-.46 .016-.082.01-.145.039-.221 .039-.103.111-.16.09-.293-.01-.062-.052-.12-.064-.187-.022-.114.002-.224 0-.337-.003-.2.017-.379-.078-.55-.38-.688-1.236-.929-1.975-.789-.18.034-.287.126-.442.207-.17.088-.139.166-.318.224-.081.026-.216.124-.215.224 .001.115.005.051.012.169-.021.011-.021-.005-.03-.025" fill="#fff"></path>
				<path d="m54.118-33.39c.018.072.007.127-.026.19-.053.101-.112.062-.165.128-.05.062-.099.276-.079.362-.169.058-.009.227-.015.35-.002.05-.041.105-.045.161-.01.119.017.266.068.37 .097.198.268.413.435.544 .19.148.365.572.608.631 .177.042.384-.104.543-.143 .18-.043.397.01.571-.053 .222-.079.127-.337.288-.45 .104-.074.287-.01.406-.051 .2-.069.339-.263.376-.46 .016-.082.01-.145.039-.221 .039-.103.111-.16.09-.293-.01-.062-.052-.12-.064-.187-.022-.114.002-.224 0-.337-.003-.2.017-.379-.078-.55-.38-.688-1.236-.929-1.975-.789-.18.034-.287.126-.442.207-.17.088-.139.166-.318.224-.081.026-.216.124-.215.224 .001.115.005.051.012.169-.021.011-.021-.005-.03-.025" fill="#fff"></path>
				<path d="m46.458-33.39c.018.072.007.127-.026.19-.053.101-.112.062-.165.128-.05.062-.099.276-.079.362-.169.058-.009.227-.015.35-.002.05-.041.105-.045.161-.01.119.017.266.068.37 .097.198.268.413.435.544 .19.148.365.572.608.631 .177.042.384-.104.543-.143 .18-.043.397.01.571-.053 .222-.079.127-.337.288-.45 .104-.074.287-.01.406-.051 .2-.069.339-.263.376-.46 .016-.082.01-.145.039-.221 .039-.103.111-.16.09-.293-.01-.062-.052-.12-.064-.187-.022-.114.002-.224 0-.337-.003-.2.017-.379-.078-.55-.38-.688-1.236-.929-1.975-.789-.18.034-.287.126-.442.207-.17.088-.139.166-.318.224-.081.026-.216.124-.215.224 .001.115.005.051.012.169-.021.011-.021-.005-.03-.025" fill="#fff"></path>
				<path d="m38.797-33.39c.018.072.007.127-.026.19-.053.101-.112.062-.165.128-.05.062-.099.276-.079.362-.169.058-.009.227-.015.35-.002.05-.041.105-.045.161-.01.119.017.266.068.37 .097.198.268.413.435.544 .19.148.365.572.608.631 .177.042.384-.104.543-.143 .18-.043.397.01.571-.053 .222-.079.127-.337.288-.45 .104-.074.287-.01.406-.051 .2-.069.339-.263.376-.46 .016-.082.01-.145.039-.221 .039-.103.111-.16.09-.293-.01-.062-.052-.12-.064-.187-.022-.114.002-.224 0-.337-.003-.2.017-.379-.078-.55-.38-.688-1.236-.929-1.975-.789-.18.034-.287.126-.442.207-.17.088-.139.166-.318.224-.081.026-.216.124-.215.224 .001.115.005.051.012.169-.021.011-.021-.005-.03-.025" fill="#fff"></path>
				<path d="m31.137-33.39c.018.072.007.127-.026.19-.053.101-.112.062-.165.128-.05.062-.099.276-.079.362-.169.058-.009.227-.015.35-.002.05-.041.105-.045.161-.01.119.017.266.068.37 .097.198.268.413.435.544 .19.148.365.572.608.631 .177.042.384-.104.543-.143 .18-.043.397.01.571-.053 .222-.079.127-.337.288-.45 .104-.074.287-.01.406-.051 .2-.069.339-.263.376-.46 .016-.082.01-.145.039-.221 .039-.103.111-.16.09-.293-.01-.062-.052-.12-.064-.187-.022-.114.002-.224 0-.337-.003-.2.017-.379-.078-.55-.38-.688-1.236-.929-1.975-.789-.18.034-.287.126-.442.207-.17.088-.139.166-.318.224-.081.026-.216.124-.215.224 .001.115.005.051.012.169-.021.011-.021-.005-.03-.025" fill="#fff"></path>
				<path d="m23.477-33.39c.018.072.007.127-.026.19-.053.101-.112.062-.165.128-.05.062-.099.276-.079.362-.169.058-.009.227-.015.35-.002.05-.041.105-.045.161-.01.119.017.266.068.37 .097.198.268.413.435.544 .19.148.365.572.608.631 .177.042.384-.104.543-.143 .18-.043.397.01.571-.053 .222-.079.127-.337.288-.45 .104-.074.287-.01.406-.051 .2-.069.339-.263.376-.46 .016-.082.01-.145.039-.221 .039-.103.111-.16.09-.293-.01-.062-.052-.12-.064-.187-.022-.114.002-.224 0-.337-.003-.2.017-.379-.078-.55-.38-.688-1.236-.929-1.975-.789-.18.034-.287.126-.442.207-.17.088-.139.166-.318.224-.081.026-.216.124-.215.224 .001.115.005.051.012.169-.021.011-.021-.005-.03-.025" fill="#fff"></path>
				<path d="m15.816-33.39c.018.072.007.127-.026.19-.053.101-.112.062-.165.128-.05.062-.099.276-.079.362-.169.058-.009.227-.015.35-.002.05-.041.105-.045.161-.01.119.017.266.068.37 .097.198.268.413.435.544 .19.148.365.572.608.631 .177.042.384-.104.543-.143 .18-.043.397.01.571-.053 .222-.079.127-.337.288-.45 .104-.074.287-.01.406-.051 .2-.069.339-.263.376-.46 .016-.082.01-.145.039-.221 .039-.103.111-.16.09-.293-.01-.062-.052-.12-.064-.187-.022-.114.002-.224 0-.337-.003-.2.017-.379-.078-.55-.38-.688-1.236-.929-1.975-.789-.18.034-.287.126-.442.207-.17.088-.139.166-.318.224-.081.026-.216.124-.215.224 .001.115.005.051.012.169-.021.011-.021-.005-.03-.025" fill="#fff"></path>
				<path d="m8.156-33.39c.018.072.007.127-.026.19-.053.101-.112.062-.165.128-.05.062-.099.276-.079.362-.169.058-.009.227-.015.35-.002.05-.041.105-.045.161-.01.119.017.266.068.37 .097.198.268.413.435.544 .19.148.365.572.608.631 .177.042.384-.104.543-.143 .18-.043.397.01.571-.053 .222-.079.127-.337.288-.45 .104-.074.287-.01.406-.051 .2-.069.339-.263.376-.46 .016-.082.01-.145.039-.221 .039-.103.111-.16.09-.293-.01-.062-.052-.12-.064-.187-.022-.114.002-.224 0-.337-.003-.2.017-.379-.078-.55-.38-.688-1.236-.929-1.975-.789-.18.034-.287.126-.442.207-.17.088-.139.166-.318.224-.081.026-.216.124-.215.224 .001.115.005.051.012.169-.021.011-.021-.005-.03-.025" fill="#fff"></path>
				<path d="m.495-33.39c.018.072.007.127-.026.19-.053.101-.112.062-.165.128-.05.062-.099.276-.079.362-.169.058-.01.227-.015.35-.002.05-.041.105-.045.161-.01.119.017.266.068.37 .097.198.268.413.435.544 .19.148.365.572.608.631 .177.042.384-.104.543-.143 .18-.043.397.01.571-.053 .222-.079.127-.337.288-.45 .104-.074.287-.01.406-.051 .2-.069.339-.263.376-.46 .016-.082.01-.145.039-.221 .039-.103.111-.16.09-.293-.01-.062-.052-.12-.064-.187-.022-.114.002-.224 0-.337-.003-.2.017-.379-.078-.55-.38-.688-1.236-.929-1.975-.789-.18.034-.287.126-.442.207-.17.088-.139.166-.318.224-.081.026-.216.124-.215.224 .003.117.006.053.013.171-.021.011-.021-.005-.03-.025" fill="#fff"></path>
			
			
				<path d="m69.439-25.736c.018.072.007.127-.026.19-.053.101-.112.062-.165.128-.05.062-.099.276-.079.362-.169.058-.01.227-.015.35-.002.05-.041.105-.045.161-.01.119.017.266.068.37 .097.198.268.413.435.544 .19.148.365.572.608.631 .177.042.384-.104.543-.143 .18-.043.397.01.571-.053 .222-.079.127-.337.288-.45 .104-.074.287-.01.406-.051 .2-.069.339-.263.376-.46 .016-.082.01-.145.039-.221 .039-.103.111-.16.09-.293-.01-.062-.052-.12-.064-.187-.022-.114.002-.224 0-.337-.003-.2.017-.379-.078-.55-.38-.688-1.236-.929-1.975-.789-.18.034-.287.126-.442.207-.17.088-.139.166-.318.224-.081.026-.216.124-.215.224 .001.115.005.051.012.169-.021.011-.021-.005-.03-.025" fill="#fff"></path>
				<path d="m61.778-25.736c.018.072.007.127-.026.19-.053.101-.112.062-.165.128-.05.062-.099.276-.079.362-.169.058-.009.227-.015.35-.002.05-.041.105-.045.161-.01.119.017.266.068.37 .097.198.268.413.435.544 .19.148.365.572.608.631 .177.042.384-.104.543-.143 .18-.043.397.01.571-.053 .222-.079.127-.337.288-.45 .104-.074.287-.01.406-.051 .2-.069.339-.263.376-.46 .016-.082.01-.145.039-.221 .039-.103.111-.16.09-.293-.01-.062-.052-.12-.064-.187-.022-.114.002-.224 0-.337-.003-.2.017-.379-.078-.55-.38-.688-1.236-.929-1.975-.789-.18.034-.287.126-.442.207-.17.088-.139.166-.318.224-.081.026-.216.124-.215.224 .001.115.005.051.012.169-.021.011-.021-.005-.03-.025" fill="#fff"></path>
				<path d="m54.118-25.736c.018.072.007.127-.026.19-.053.101-.112.062-.165.128-.05.062-.099.276-.079.362-.169.058-.009.227-.015.35-.002.05-.041.105-.045.161-.01.119.017.266.068.37 .097.198.268.413.435.544 .19.148.365.572.608.631 .177.042.384-.104.543-.143 .18-.043.397.01.571-.053 .222-.079.127-.337.288-.45 .104-.074.287-.01.406-.051 .2-.069.339-.263.376-.46 .016-.082.01-.145.039-.221 .039-.103.111-.16.09-.293-.01-.062-.052-.12-.064-.187-.022-.114.002-.224 0-.337-.003-.2.017-.379-.078-.55-.38-.688-1.236-.929-1.975-.789-.18.034-.287.126-.442.207-.17.088-.139.166-.318.224-.081.026-.216.124-.215.224 .001.115.005.051.012.169-.021.011-.021-.005-.03-.025" fill="#fff"></path>
				<path d="m46.458-25.736c.018.072.007.127-.026.19-.053.101-.112.062-.165.128-.05.062-.099.276-.079.362-.169.058-.009.227-.015.35-.002.05-.041.105-.045.161-.01.119.017.266.068.37 .097.198.268.413.435.544 .19.148.365.572.608.631 .177.042.384-.104.543-.143 .18-.043.397.01.571-.053 .222-.079.127-.337.288-.45 .104-.074.287-.01.406-.051 .2-.069.339-.263.376-.46 .016-.082.01-.145.039-.221 .039-.103.111-.16.09-.293-.01-.062-.052-.12-.064-.187-.022-.114.002-.224 0-.337-.003-.2.017-.379-.078-.55-.38-.688-1.236-.929-1.975-.789-.18.034-.287.126-.442.207-.17.088-.139.166-.318.224-.081.026-.216.124-.215.224 .001.115.005.051.012.169-.021.011-.021-.005-.03-.025" fill="#fff"></path>
				<path d="m38.797-25.736c.018.072.007.127-.026.19-.053.101-.112.062-.165.128-.05.062-.099.276-.079.362-.169.058-.009.227-.015.35-.002.05-.041.105-.045.161-.01.119.017.266.068.37 .097.198.268.413.435.544 .19.148.365.572.608.631 .177.042.384-.104.543-.143 .18-.043.397.01.571-.053 .222-.079.127-.337.288-.45 .104-.074.287-.01.406-.051 .2-.069.339-.263.376-.46 .016-.082.01-.145.039-.221 .039-.103.111-.16.09-.293-.01-.062-.052-.12-.064-.187-.022-.114.002-.224 0-.337-.003-.2.017-.379-.078-.55-.38-.688-1.236-.929-1.975-.789-.18.034-.287.126-.442.207-.17.088-.139.166-.318.224-.081.026-.216.124-.215.224 .001.115.005.051.012.169-.021.011-.021-.005-.03-.025" fill="#fff"></path>
				<path d="m31.137-25.736c.018.072.007.127-.026.19-.053.101-.112.062-.165.128-.05.062-.099.276-.079.362-.169.058-.009.227-.015.35-.002.05-.041.105-.045.161-.01.119.017.266.068.37 .097.198.268.413.435.544 .19.148.365.572.608.631 .177.042.384-.104.543-.143 .18-.043.397.01.571-.053 .222-.079.127-.337.288-.45 .104-.074.287-.01.406-.051 .2-.069.339-.263.376-.46 .016-.082.01-.145.039-.221 .039-.103.111-.16.09-.293-.01-.062-.052-.12-.064-.187-.022-.114.002-.224 0-.337-.003-.2.017-.379-.078-.55-.38-.688-1.236-.929-1.975-.789-.18.034-.287.126-.442.207-.17.088-.139.166-.318.224-.081.026-.216.124-.215.224 .001.115.005.051.012.169-.021.011-.021-.005-.03-.025" fill="#fff"></path>
				<path d="m23.477-25.736c.018.072.007.127-.026.19-.053.101-.112.062-.165.128-.05.062-.099.276-.079.362-.169.058-.009.227-.015.35-.002.05-.041.105-.045.161-.01.119.017.266.068.37 .097.198.268.413.435.544 .19.148.365.572.608.631 .177.042.384-.104.543-.143 .18-.043.397.01.571-.053 .222-.079.127-.337.288-.45 .104-.074.287-.01.406-.051 .2-.069.339-.263.376-.46 .016-.082.01-.145.039-.221 .039-.103.111-.16.09-.293-.01-.062-.052-.12-.064-.187-.022-.114.002-.224 0-.337-.003-.2.017-.379-.078-.55-.38-.688-1.236-.929-1.975-.789-.18.034-.287.126-.442.207-.17.088-.139.166-.318.224-.081.026-.216.124-.215.224 .001.115.005.051.012.169-.021.011-.021-.005-.03-.025" fill="#fff"></path>
				<path d="m15.816-25.736c.018.072.007.127-.026.19-.053.101-.112.062-.165.128-.05.062-.099.276-.079.362-.169.058-.009.227-.015.35-.002.05-.041.105-.045.161-.01.119.017.266.068.37 .097.198.268.413.435.544 .19.148.365.572.608.631 .177.042.384-.104.543-.143 .18-.043.397.01.571-.053 .222-.079.127-.337.288-.45 .104-.074.287-.01.406-.051 .2-.069.339-.263.376-.46 .016-.082.01-.145.039-.221 .039-.103.111-.16.09-.293-.01-.062-.052-.12-.064-.187-.022-.114.002-.224 0-.337-.003-.2.017-.379-.078-.55-.38-.688-1.236-.929-1.975-.789-.18.034-.287.126-.442.207-.17.088-.139.166-.318.224-.081.026-.216.124-.215.224 .001.115.005.051.012.169-.021.011-.021-.005-.03-.025" fill="#fff"></path>
				<path d="m8.156-25.736c.018.072.007.127-.026.19-.053.101-.112.062-.165.128-.05.062-.099.276-.079.362-.169.058-.009.227-.015.35-.002.05-.041.105-.045.161-.01.119.017.266.068.37 .097.198.268.413.435.544 .19.148.365.572.608.631 .177.042.384-.104.543-.143 .18-.043.397.01.571-.053 .222-.079.127-.337.288-.45 .104-.074.287-.01.406-.051 .2-.069.339-.263.376-.46 .016-.082.01-.145.039-.221 .039-.103.111-.16.09-.293-.01-.062-.052-.12-.064-.187-.022-.114.002-.224 0-.337-.003-.2.017-.379-.078-.55-.38-.688-1.236-.929-1.975-.789-.18.034-.287.126-.442.207-.17.088-.139.166-.318.224-.081.026-.216.124-.215.224 .001.115.005.051.012.169-.021.011-.021-.005-.03-.025" fill="#fff"></path>
				<path d="m.495-25.736c.018.072.007.127-.026.19-.053.101-.112.062-.165.128-.05.062-.099.276-.079.362-.169.058-.01.227-.015.35-.002.05-.041.105-.045.161-.01.119.017.266.068.37 .097.198.268.413.435.544 .19.148.365.572.608.631 .177.042.384-.104.543-.143 .18-.043.397.01.571-.053 .222-.079.127-.337.288-.45 .104-.074.287-.01.406-.051 .2-.069.339-.263.376-.46 .016-.082.01-.145.039-.221 .039-.103.111-.16.09-.293-.01-.062-.052-.12-.064-.187-.022-.114.002-.224 0-.337-.003-.2.017-.379-.078-.55-.38-.688-1.236-.929-1.975-.789-.18.034-.287.126-.442.207-.17.088-.139.166-.318.224-.081.026-.216.124-.215.224 .001.115.005.051.012.169-.021.011-.021-.005-.03-.025" fill="#fff"></path>
			
			
				<path d="m69.439-18.084c.018.072.007.127-.026.19-.053.101-.112.062-.165.128-.05.062-.099.276-.079.362-.169.058-.01.227-.015.35-.002.05-.041.105-.045.161-.01.119.017.266.068.37 .097.198.268.413.435.544 .19.148.365.572.608.631 .177.042.384-.104.543-.143 .18-.043.397.01.571-.053 .222-.079.127-.337.288-.45 .104-.074.287-.01.406-.051 .2-.069.339-.263.376-.46 .016-.082.01-.145.039-.221 .039-.103.111-.16.09-.293-.01-.062-.052-.12-.064-.187-.022-.114.002-.224 0-.337-.003-.2.017-.379-.078-.55-.38-.688-1.236-.929-1.975-.789-.18.034-.287.126-.442.207-.17.088-.139.166-.318.224-.081.026-.216.124-.215.224 .001.115.005.051.012.169-.021.011-.021-.005-.03-.025" fill="#fff"></path>
				<path d="m61.778-18.084c.018.072.007.127-.026.19-.053.101-.112.062-.165.128-.05.062-.099.276-.079.362-.169.058-.009.227-.015.35-.002.05-.041.105-.045.161-.01.119.017.266.068.37 .097.198.268.413.435.544 .19.148.365.572.608.631 .177.042.384-.104.543-.143 .18-.043.397.01.571-.053 .222-.079.127-.337.288-.45 .104-.074.287-.01.406-.051 .2-.069.339-.263.376-.46 .016-.082.01-.145.039-.221 .039-.103.111-.16.09-.293-.01-.062-.052-.12-.064-.187-.022-.114.002-.224 0-.337-.003-.2.017-.379-.078-.55-.38-.688-1.236-.929-1.975-.789-.18.034-.287.126-.442.207-.17.088-.139.166-.318.224-.081.026-.216.124-.215.224 .001.115.005.051.012.169-.021.011-.021-.005-.03-.025" fill="#fff"></path>
				<path d="m54.118-18.084c.018.072.007.127-.026.19-.053.101-.112.062-.165.128-.05.062-.099.276-.079.362-.169.058-.009.227-.015.35-.002.05-.041.105-.045.161-.01.119.017.266.068.37 .097.198.268.413.435.544 .19.148.365.572.608.631 .177.042.384-.104.543-.143 .18-.043.397.01.571-.053 .222-.079.127-.337.288-.45 .104-.074.287-.01.406-.051 .2-.069.339-.263.376-.46 .016-.082.01-.145.039-.221 .039-.103.111-.16.09-.293-.01-.062-.052-.12-.064-.187-.022-.114.002-.224 0-.337-.003-.2.017-.379-.078-.55-.38-.688-1.236-.929-1.975-.789-.18.034-.287.126-.442.207-.17.088-.139.166-.318.224-.081.026-.216.124-.215.224 .001.115.005.051.012.169-.021.011-.021-.005-.03-.025" fill="#fff"></path>
				<path d="m46.458-18.084c.018.072.007.127-.026.19-.053.101-.112.062-.165.128-.05.062-.099.276-.079.362-.169.058-.009.227-.015.35-.002.05-.041.105-.045.161-.01.119.017.266.068.37 .097.198.268.413.435.544 .19.148.365.572.608.631 .177.042.384-.104.543-.143 .18-.043.397.01.571-.053 .222-.079.127-.337.288-.45 .104-.074.287-.01.406-.051 .2-.069.339-.263.376-.46 .016-.082.01-.145.039-.221 .039-.103.111-.16.09-.293-.01-.062-.052-.12-.064-.187-.022-.114.002-.224 0-.337-.003-.2.017-.379-.078-.55-.38-.688-1.236-.929-1.975-.789-.18.034-.287.126-.442.207-.17.088-.139.166-.318.224-.081.026-.216.124-.215.224 .001.115.005.051.012.169-.021.011-.021-.005-.03-.025" fill="#fff"></path>
				<path d="m38.797-18.084c.018.072.007.127-.026.19-.053.101-.112.062-.165.128-.05.062-.099.276-.079.362-.169.058-.009.227-.015.35-.002.05-.041.105-.045.161-.01.119.017.266.068.37 .097.198.268.413.435.544 .19.148.365.572.608.631 .177.042.384-.104.543-.143 .18-.043.397.01.571-.053 .222-.079.127-.337.288-.45 .104-.074.287-.01.406-.051 .2-.069.339-.263.376-.46 .016-.082.01-.145.039-.221 .039-.103.111-.16.09-.293-.01-.062-.052-.12-.064-.187-.022-.114.002-.224 0-.337-.003-.2.017-.379-.078-.55-.38-.688-1.236-.929-1.975-.789-.18.034-.287.126-.442.207-.17.088-.139.166-.318.224-.081.026-.216.124-.215.224 .001.115.005.051.012.169-.021.011-.021-.005-.03-.025" fill="#fff"></path>
				<path d="m31.137-18.084c.018.072.007.127-.026.19-.053.101-.112.062-.165.128-.05.062-.099.276-.079.362-.169.058-.009.227-.015.35-.002.05-.041.105-.045.161-.01.119.017.266.068.37 .097.198.268.413.435.544 .19.148.365.572.608.631 .177.042.384-.104.543-.143 .18-.043.397.01.571-.053 .222-.079.127-.337.288-.45 .104-.074.287-.01.406-.051 .2-.069.339-.263.376-.46 .016-.082.01-.145.039-.221 .039-.103.111-.16.09-.293-.01-.062-.052-.12-.064-.187-.022-.114.002-.224 0-.337-.003-.2.017-.379-.078-.55-.38-.688-1.236-.929-1.975-.789-.18.034-.287.126-.442.207-.17.088-.139.166-.318.224-.081.026-.216.124-.215.224 .001.115.005.051.012.169-.021.011-.021-.005-.03-.025" fill="#fff"></path>
				<path d="m23.477-18.084c.018.072.007.127-.026.19-.053.101-.112.062-.165.128-.05.062-.099.276-.079.362-.169.058-.009.227-.015.35-.002.05-.041.105-.045.161-.01.119.017.266.068.37 .097.198.268.413.435.544 .19.148.365.572.608.631 .177.042.384-.104.543-.143 .18-.043.397.01.571-.053 .222-.079.127-.337.288-.45 .104-.074.287-.01.406-.051 .2-.069.339-.263.376-.46 .016-.082.01-.145.039-.221 .039-.103.111-.16.09-.293-.01-.062-.052-.12-.064-.187-.022-.114.002-.224 0-.337-.003-.2.017-.379-.078-.55-.38-.688-1.236-.929-1.975-.789-.18.034-.287.126-.442.207-.17.088-.139.166-.318.224-.081.026-.216.124-.215.224 .001.115.005.051.012.169-.021.011-.021-.005-.03-.025" fill="#fff"></path>
				<path d="m15.816-18.084c.018.072.007.127-.026.19-.053.101-.112.062-.165.128-.05.062-.099.276-.079.362-.169.058-.009.227-.015.35-.002.05-.041.105-.045.161-.01.119.017.266.068.37 .097.198.268.413.435.544 .19.148.365.572.608.631 .177.042.384-.104.543-.143 .18-.043.397.01.571-.053 .222-.079.127-.337.288-.45 .104-.074.287-.01.406-.051 .2-.069.339-.263.376-.46 .016-.082.01-.145.039-.221 .039-.103.111-.16.09-.293-.01-.062-.052-.12-.064-.187-.022-.114.002-.224 0-.337-.003-.2.017-.379-.078-.55-.38-.688-1.236-.929-1.975-.789-.18.034-.287.126-.442.207-.17.088-.139.166-.318.224-.081.026-.216.124-.215.224 .001.115.005.051.012.169-.021.011-.021-.005-.03-.025" fill="#fff"></path>
				<path d="m8.156-18.084c.018.072.007.127-.026.19-.053.101-.112.062-.165.128-.05.062-.099.276-.079.362-.169.058-.009.227-.015.35-.002.05-.041.105-.045.161-.01.119.017.266.068.37 .097.198.268.413.435.544 .19.148.365.572.608.631 .177.042.384-.104.543-.143 .18-.043.397.01.571-.053 .222-.079.127-.337.288-.45 .104-.074.287-.01.406-.051 .2-.069.339-.263.376-.46 .016-.082.01-.145.039-.221 .039-.103.111-.16.09-.293-.01-.062-.052-.12-.064-.187-.022-.114.002-.224 0-.337-.003-.2.017-.379-.078-.55-.38-.688-1.236-.929-1.975-.789-.18.034-.287.126-.442.207-.17.088-.139.166-.318.224-.081.026-.216.124-.215.224 .001.115.005.051.012.169-.021.011-.021-.005-.03-.025" fill="#fff"></path>
				<path d="m.495-18.084c.018.072.007.127-.026.19-.053.101-.112.062-.165.128-.05.062-.099.276-.079.362-.169.058-.01.227-.015.35-.002.05-.041.105-.045.161-.01.119.017.266.068.37 .097.198.268.413.435.544 .19.148.365.572.608.631 .177.042.384-.104.543-.143 .18-.043.397.01.571-.053 .222-.079.127-.337.288-.45 .104-.074.287-.01.406-.051 .2-.069.339-.263.376-.46 .016-.082.01-.145.039-.221 .039-.103.111-.16.09-.293-.01-.062-.052-.12-.064-.187-.022-.114.002-.224 0-.337-.003-.2.017-.379-.078-.55-.38-.688-1.236-.929-1.975-.789-.18.034-.287.126-.442.207-.17.088-.139.166-.318.224-.081.026-.216.124-.215.224 .003.117.006.052.013.17-.021.011-.021-.005-.03-.025" fill="#fff"></path>
			
			
				<path d="m69.439-10.431c.018.072.007.127-.026.19-.053.101-.112.062-.165.128-.05.062-.099.276-.079.362-.169.059-.01.228-.015.351-.002.05-.041.105-.045.161-.01.119.017.266.068.37 .097.198.268.413.435.544 .19.148.365.572.608.631 .177.042.384-.104.543-.143 .18-.043.397.01.571-.053 .222-.079.127-.337.288-.45 .104-.074.287-.01.406-.051 .2-.069.339-.263.376-.46 .016-.082.01-.145.039-.221 .039-.103.111-.16.09-.293-.01-.062-.052-.12-.064-.187-.022-.114.002-.224 0-.337-.003-.2.017-.379-.078-.55-.38-.688-1.236-.929-1.975-.789-.18.034-.287.126-.442.207-.17.088-.139.166-.318.224-.081.026-.216.124-.215.224 .001.115.005.051.012.169-.021.011-.021-.005-.03-.025" fill="#fff"></path>
				<path d="m61.778-10.431c.018.072.007.127-.026.19-.053.101-.112.062-.165.128-.05.062-.099.276-.079.362-.169.058-.009.227-.015.35-.002.05-.041.105-.045.161-.01.119.017.266.068.37 .097.198.268.413.435.544 .19.148.365.572.608.631 .177.042.384-.104.543-.143 .18-.043.397.01.571-.053 .222-.079.127-.337.288-.45 .104-.074.287-.01.406-.051 .2-.069.339-.263.376-.46 .016-.082.01-.145.039-.221 .039-.103.111-.16.09-.293-.01-.062-.052-.12-.064-.187-.022-.114.002-.224 0-.337-.003-.2.017-.379-.078-.55-.38-.688-1.236-.929-1.975-.789-.18.034-.287.126-.442.207-.17.088-.139.166-.318.224-.081.026-.216.124-.215.224 .001.115.005.051.012.169-.021.011-.021-.005-.03-.025" fill="#fff"></path>
				<path d="m54.118-10.431c.018.072.007.127-.026.19-.053.101-.112.062-.165.128-.05.062-.099.276-.079.362-.169.058-.009.227-.015.35-.002.05-.041.105-.045.161-.01.119.017.266.068.37 .097.198.268.413.435.544 .19.148.365.572.608.631 .177.042.384-.104.543-.143 .18-.043.397.01.571-.053 .222-.079.127-.337.288-.45 .104-.074.287-.01.406-.051 .2-.069.339-.263.376-.46 .016-.082.01-.145.039-.221 .039-.103.111-.16.09-.293-.01-.062-.052-.12-.064-.187-.022-.114.002-.224 0-.337-.003-.2.017-.379-.078-.55-.38-.688-1.236-.929-1.975-.789-.18.034-.287.126-.442.207-.17.088-.139.166-.318.224-.081.026-.216.124-.215.224 .001.115.005.051.012.169-.021.011-.021-.005-.03-.025" fill="#fff"></path>
				<path d="m46.458-10.431c.018.072.007.127-.026.19-.053.101-.112.062-.165.128-.05.062-.099.276-.079.362-.169.058-.009.227-.015.35-.002.05-.041.105-.045.161-.01.119.017.266.068.37 .097.198.268.413.435.544 .19.148.365.572.608.631 .177.042.384-.104.543-.143 .18-.043.397.01.571-.053 .222-.079.127-.337.288-.45 .104-.074.287-.01.406-.051 .2-.069.339-.263.376-.46 .016-.082.01-.145.039-.221 .039-.103.111-.16.09-.293-.01-.062-.052-.12-.064-.187-.022-.114.002-.224 0-.337-.003-.2.017-.379-.078-.55-.38-.688-1.236-.929-1.975-.789-.18.034-.287.126-.442.207-.17.088-.139.166-.318.224-.081.026-.216.124-.215.224 .001.115.005.051.012.169-.021.011-.021-.005-.03-.025" fill="#fff"></path>
				<path d="m38.797-10.431c.018.072.007.127-.026.19-.053.101-.112.062-.165.128-.05.062-.099.276-.079.362-.169.058-.009.227-.015.35-.002.05-.041.105-.045.161-.01.119.017.266.068.37 .097.198.268.413.435.544 .19.148.365.572.608.631 .177.042.384-.104.543-.143 .18-.043.397.01.571-.053 .222-.079.127-.337.288-.45 .104-.074.287-.01.406-.051 .2-.069.339-.263.376-.46 .016-.082.01-.145.039-.221 .039-.103.111-.16.09-.293-.01-.062-.052-.12-.064-.187-.022-.114.002-.224 0-.337-.003-.2.017-.379-.078-.55-.38-.688-1.236-.929-1.975-.789-.18.034-.287.126-.442.207-.17.088-.139.166-.318.224-.081.026-.216.124-.215.224 .001.115.005.051.012.169-.021.011-.021-.005-.03-.025" fill="#fff"></path>
				<path d="m31.137-10.431c.018.072.007.127-.026.19-.053.101-.112.062-.165.128-.05.062-.099.276-.079.362-.169.058-.009.227-.015.35-.002.05-.041.105-.045.161-.01.119.017.266.068.37 .097.198.268.413.435.544 .19.148.365.572.608.631 .177.042.384-.104.543-.143 .18-.043.397.01.571-.053 .222-.079.127-.337.288-.45 .104-.074.287-.01.406-.051 .2-.069.339-.263.376-.46 .016-.082.01-.145.039-.221 .039-.103.111-.16.09-.293-.01-.062-.052-.12-.064-.187-.022-.114.002-.224 0-.337-.003-.2.017-.379-.078-.55-.38-.688-1.236-.929-1.975-.789-.18.034-.287.126-.442.207-.17.088-.139.166-.318.224-.081.026-.216.124-.215.224 .001.115.005.051.012.169-.021.011-.021-.005-.03-.025" fill="#fff"></path>
				<path d="m23.477-10.431c.018.072.007.127-.026.19-.053.101-.112.062-.165.128-.05.062-.099.276-.079.362-.169.058-.009.227-.015.35-.002.05-.041.105-.045.161-.01.119.017.266.068.37 .097.198.268.413.435.544 .19.148.365.572.608.631 .177.042.384-.104.543-.143 .18-.043.397.01.571-.053 .222-.079.127-.337.288-.45 .104-.074.287-.01.406-.051 .2-.069.339-.263.376-.46 .016-.082.01-.145.039-.221 .039-.103.111-.16.09-.293-.01-.062-.052-.12-.064-.187-.022-.114.002-.224 0-.337-.003-.2.017-.379-.078-.55-.38-.688-1.236-.929-1.975-.789-.18.034-.287.126-.442.207-.17.088-.139.166-.318.224-.081.026-.216.124-.215.224 .001.115.005.051.012.169-.021.011-.021-.005-.03-.025" fill="#fff"></path>
				<path d="m15.816-10.431c.018.072.007.127-.026.19-.053.101-.112.062-.165.128-.05.062-.099.276-.079.362-.169.058-.009.227-.015.35-.002.05-.041.105-.045.161-.01.119.017.266.068.37 .097.198.268.413.435.544 .19.148.365.572.608.631 .177.042.384-.104.543-.143 .18-.043.397.01.571-.053 .222-.078.128-.336.289-.449 .104-.074.287-.01.406-.051 .2-.069.339-.263.376-.46 .016-.082.01-.145.039-.221 .039-.103.111-.16.09-.293-.01-.062-.052-.12-.064-.187-.022-.114.002-.224 0-.337-.003-.2.017-.379-.078-.55-.38-.688-1.236-.929-1.975-.789-.18.034-.287.126-.442.207-.17.088-.139.166-.318.224-.081.026-.216.124-.215.224 .001.115.005.051.012.169-.021.011-.021-.005-.03-.025" fill="#fff"></path>
				<path d="m8.156-10.431c.018.072.007.127-.026.19-.053.101-.112.062-.165.128-.05.063-.099.277-.079.363-.169.058-.01.227-.015.35-.003.049-.041.105-.045.161-.01.119.017.266.068.37 .097.198.268.413.435.544 .19.148.365.572.608.631 .177.042.384-.105.543-.143 .18-.043.397.01.571-.053 .222-.079.127-.337.288-.45 .104-.074.287-.01.406-.051 .2-.069.339-.263.376-.46 .016-.082.01-.145.039-.221 .039-.103.111-.16.09-.293-.01-.062-.052-.12-.064-.187-.022-.114.002-.224 0-.337-.003-.2.017-.379-.078-.55-.38-.688-1.236-.929-1.975-.789-.18.034-.287.126-.442.207-.17.088-.139.166-.318.224-.081.026-.216.124-.215.224 .001.115.005.051.012.169-.021.011-.021-.005-.03-.025" fill="#fff"></path>
				<path d="m.495-10.431c.018.072.007.127-.026.19-.053.101-.112.062-.165.128-.05.063-.099.277-.079.363-.169.058-.01.227-.015.35-.002.05-.041.105-.045.161-.01.119.017.266.068.37 .097.198.268.413.435.544 .19.148.365.572.608.631 .178.042.384-.105.543-.143 .181-.043.398.01.572-.053 .222-.079.127-.337.288-.45 .104-.074.287-.01.406-.051 .2-.069.339-.263.376-.46 .016-.082.01-.144.039-.22 .039-.103.111-.16.09-.293-.01-.062-.052-.12-.064-.187-.022-.114.002-.224 0-.337-.003-.2.017-.379-.078-.55-.38-.688-1.236-.929-1.975-.789-.18.034-.287.126-.442.207-.17.088-.139.166-.318.224-.081.026-.216.124-.215.224 .001.115.005.051.012.169-.021.011-.021-.005-.03-.025" fill="#fff"></path>
			
		
		
			<path d="m69.439-2.778c.018.072.008.127-.026.19-.052.101-.113.063-.165.128-.051.062-.099.276-.079.362-.169.058-.01.227-.015.35-.002.05-.041.105-.045.161-.01.119.017.266.068.37 .097.198.268.413.435.544 .19.148.365.572.608.631 .177.042.384-.104.543-.143 .18-.043.397.01.571-.053 .222-.079.127-.337.288-.45 .104-.074.287-.01.406-.051 .2-.07.339-.263.376-.46 .016-.082.01-.145.039-.221 .038-.103.111-.16.09-.293-.01-.062-.051-.12-.064-.187-.021-.114.002-.224 0-.337-.003-.2.017-.379-.078-.55-.38-.688-1.236-.929-1.975-.789-.18.034-.287.126-.442.207-.17.088-.139.166-.318.224-.081.026-.215.124-.215.224 .002.115.005.051.012.169-.021.011-.021-.005-.03-.025" fill="#fff"></path>
			<path d="m61.778-2.778c.018.072.007.127-.026.19-.052.101-.112.063-.165.128-.05.062-.099.276-.079.362-.169.058-.01.227-.015.35-.002.05-.041.105-.045.161-.01.119.017.266.068.37 .097.198.268.413.435.544 .19.148.365.572.608.631 .178.042.384-.104.544-.143 .18-.043.397.01.571-.053 .222-.079.127-.337.288-.45 .104-.074.287-.01.406-.051 .2-.069.339-.263.376-.46 .016-.082.01-.145.039-.221 .039-.103.111-.16.09-.293-.01-.062-.052-.12-.064-.187-.022-.114.002-.224 0-.337-.003-.2.017-.379-.078-.55-.38-.688-1.236-.929-1.975-.789-.18.034-.287.126-.442.207-.17.088-.139.166-.318.224-.081.028-.216.125-.215.225 .001.115.005.051.012.169-.021.011-.021-.005-.03-.025" fill="#fff"></path>
			<path d="m54.118-2.778c.018.072.007.127-.026.19-.052.101-.112.063-.165.128-.05.062-.099.276-.079.362-.169.058-.01.227-.015.35-.002.05-.041.105-.045.161-.01.119.017.266.068.37 .097.198.268.413.435.544 .19.148.365.572.608.631 .178.042.384-.104.543-.143 .18-.043.397.01.571-.053 .222-.079.127-.337.288-.45 .104-.074.287-.01.406-.051 .2-.069.339-.263.376-.46 .016-.082.01-.145.039-.221 .039-.103.111-.16.09-.293-.01-.062-.052-.12-.064-.187-.022-.114.002-.224 0-.337-.003-.2.017-.379-.078-.55-.38-.688-1.236-.929-1.975-.789-.18.034-.287.126-.442.207-.17.088-.139.166-.318.224-.08.028-.215.125-.214.225 .001.115.005.051.012.169-.021.011-.021-.005-.03-.025" fill="#fff"></path>
			<path d="m46.458-2.778c.018.072.007.127-.026.19-.053.101-.112.062-.165.128-.05.062-.099.276-.079.362-.169.058-.01.227-.015.35-.002.05-.041.105-.045.161-.01.119.017.266.068.37 .097.198.268.413.435.544 .19.148.365.572.608.631 .177.042.384-.104.543-.143 .18-.043.397.01.571-.053 .222-.079.127-.337.288-.45 .104-.074.287-.01.406-.051 .2-.069.339-.263.376-.46 .016-.082.01-.145.039-.221 .039-.103.111-.16.09-.293-.01-.062-.052-.12-.064-.187-.022-.114.002-.224 0-.337-.003-.2.017-.379-.078-.55-.38-.688-1.236-.929-1.975-.789-.18.034-.287.126-.442.207-.17.088-.139.166-.318.224-.081.028-.216.125-.215.225 .001.115.005.051.012.169-.021.011-.021-.005-.03-.025" fill="#fff"></path>
			<path d="m38.797-2.778c.018.072.007.127-.026.19-.053.101-.112.062-.165.128-.05.062-.099.276-.079.362-.169.058-.01.227-.015.35-.002.05-.041.105-.045.161-.01.119.017.266.068.37 .097.198.268.413.435.544 .19.148.365.572.608.631 .178.042.384-.104.544-.143 .18-.043.397.01.571-.053 .222-.079.127-.337.288-.45 .104-.074.287-.01.406-.051 .2-.069.339-.263.376-.46 .016-.082.01-.145.039-.221 .039-.103.111-.16.09-.293-.01-.062-.052-.12-.064-.187-.022-.114.002-.224 0-.337-.003-.2.017-.379-.078-.55-.38-.688-1.236-.929-1.975-.789-.18.034-.287.126-.442.207-.17.088-.139.166-.318.224-.081.028-.216.125-.215.225 .001.115.005.051.012.169-.021.011-.021-.005-.03-.025" fill="#fff"></path>
			<path d="m31.137-2.778c.018.072.007.127-.026.19-.053.101-.112.062-.165.128-.05.062-.099.276-.079.362-.169.058-.01.227-.015.35-.002.05-.041.105-.045.161-.01.119.017.266.068.37 .097.198.268.413.435.544 .19.148.365.572.608.631 .177.042.384-.104.543-.143 .18-.043.397.01.571-.053 .222-.079.127-.337.288-.45 .104-.074.287-.01.406-.051 .2-.069.339-.263.376-.46 .016-.082.01-.145.039-.221 .039-.103.111-.16.09-.293-.01-.062-.052-.12-.064-.187-.022-.114.002-.224 0-.337-.003-.2.017-.379-.078-.55-.38-.688-1.236-.929-1.975-.789-.18.034-.287.126-.442.207-.17.088-.139.166-.318.224-.081.028-.215.125-.214.225 .001.115.005.051.012.169-.021.011-.021-.005-.03-.025" fill="#fff"></path>
			<path d="m23.477-2.778c.018.072.007.127-.026.19-.053.101-.112.062-.165.128-.05.062-.099.276-.079.362-.169.058-.01.227-.015.35-.002.05-.041.105-.045.161-.01.119.017.266.068.37 .097.198.268.413.435.544 .19.148.365.572.608.631 .177.042.384-.104.543-.143 .18-.043.397.01.571-.053 .222-.079.127-.337.288-.45 .104-.074.287-.01.406-.051 .2-.069.339-.263.376-.46 .016-.082.01-.145.039-.221 .039-.103.111-.16.09-.293-.01-.062-.052-.12-.064-.187-.022-.114.002-.224 0-.337-.003-.2.017-.379-.078-.55-.38-.688-1.236-.929-1.975-.789-.18.034-.287.126-.442.207-.17.088-.139.166-.318.224-.081.026-.216.124-.215.224 .001.115.005.051.012.169-.021.011-.021-.005-.03-.025" fill="#fff"></path>
			<path d="m15.816-2.778c.018.072.007.127-.026.19-.053.101-.112.062-.165.128-.05.062-.099.276-.079.362-.169.058-.01.227-.015.35-.002.05-.041.105-.045.161-.01.119.017.266.068.37 .097.198.268.413.435.544 .19.148.365.572.608.631 .177.042.384-.104.543-.143 .18-.043.397.01.571-.053 .222-.079.127-.337.288-.45 .104-.074.287-.01.406-.051 .2-.069.339-.263.376-.46 .016-.082.01-.145.039-.221 .039-.103.111-.16.09-.293-.01-.062-.052-.12-.064-.187-.022-.114.002-.224 0-.337-.003-.2.017-.379-.078-.55-.38-.688-1.236-.929-1.975-.789-.18.034-.287.126-.442.207-.17.088-.139.166-.318.224-.081.026-.216.124-.215.224 .001.115.005.051.012.169-.02.012-.021-.004-.03-.024" fill="#fff"></path>
			<path d="m8.156-2.778c.018.072.007.127-.026.19-.053.101-.112.063-.165.128-.05.062-.099.276-.079.362-.169.058-.01.227-.015.35-.003.05-.041.105-.045.161-.01.119.017.266.068.37 .097.198.268.413.435.544 .19.148.365.572.608.631 .177.042.384-.104.543-.143 .18-.043.397.01.571-.053 .222-.079.127-.337.288-.45 .104-.074.287-.01.406-.051 .2-.069.339-.263.376-.46 .016-.082.01-.145.039-.221 .039-.103.111-.16.09-.293-.01-.062-.052-.12-.064-.187-.022-.114.002-.224 0-.337-.003-.2.017-.379-.078-.55-.38-.688-1.236-.929-1.975-.789-.179.036-.286.128-.441.209-.17.088-.139.166-.318.224-.082.026-.216.123-.215.223 .001.115.005.051.011.169-.02.011-.021-.005-.03-.025" fill="#fff"></path>
			<path d="m.495-2.778c.018.072.008.127-.026.19-.052.101-.113.063-.165.128-.051.063-.099.276-.079.362-.169.058-.01.227-.015.35-.002.05-.041.105-.045.161-.01.119.017.266.068.37 .097.198.268.413.435.544 .19.148.365.572.608.631 .178.042.384-.104.543-.143 .181-.043.398.01.572-.052 .222-.079.127-.337.288-.45 .104-.074.287-.01.406-.051 .2-.07.339-.263.376-.46 .016-.082.01-.145.039-.221 .038-.103.111-.16.09-.293-.01-.062-.051-.12-.064-.187-.021-.114.002-.224 0-.337-.003-.2.017-.379-.078-.55-.38-.688-1.236-.929-1.975-.789-.18.035-.286.127-.442.208-.17.088-.139.166-.318.224-.081.026-.215.123-.215.223 .002.115.005.051.012.169-.021.011-.022-.005-.031-.025" fill="#fff"></path>
		
	
</pattern></defs>

<path d="m97.94,14.211c-2.923-.023-2.875-2.934-4.521-4.52-4.118-3.974-10.282-5.483-16.072-8.036v-1.507c5.894-.995 10.775,3.255 15.067,5.524 1.099,3.59 5.713,3.666 5.526,8.539z" fill-rule="evenodd"></path>
<path d="m78.351,6.176c-.713,2.194-2.738-.066-5.021,0-8.958.257-13.258,7.012-19.588,10.044-9.989,4.786-15.331-4.542-21.095-11.049h-7.031c-2.117,1.231-3.671,3.025-6.53,3.516-4.775,3.093-7.033,8.705-12.557,11.049-.861-2.702 2.208-3.52 3.516-5.023 .625-.718.833-2.306 1.507-3.013 3.09-3.247 7.989-6.075 12.054-9.041 3.614-.971 7.201-.162 11.05,0 4.777,4.271 6.675,12.031 14.063,12.054 7.353.023 13.626-12.443 25.112-11.049 1.325.161 3.477.714 4.52,2.512z" fill-rule="evenodd"></path>
<path d="m43.696,34.804c-1.589,1.424.444,4.383-2.009,5.525-3.083-1.734-2.799-5.542-4.52-8.036-2.833-4.103-7.645-5.495-12.556-7.534-4.583,1.066-7.508,4.944-11.05,7.534-1.188.868-2.956,1.084-4.018,2.009-2.788,2.429-4.313,7.663-9.543,6.529 1.091-6.778 7.166-8.571 9.041-14.566 7.48-4.37 12.334-17.422 22.602-10.045 4.729,3.398 9.36,10.415 10.547,17.077 .055.949 1.66.349 1.506,1.507z" fill-rule="evenodd"></path>
<path d="m92.414,42.338c-2.654-.749-.956-3.764-1.506-6.027-.641-2.64-2.5-4.625-3.516-7.032-2.895-1.412-3.547-4.653-6.53-5.023-1.802-.224-5.26,1.191-7.031,2.009-4.204,1.941-8.442,5.8-12.053,9.042-1.718,1.541-3.548,4.06-5.526,3.013-.581-2.064 1.423-3.519 2.513-5.023 2.404-3.318 5.001-7.044 8.035-10.045 1.067-1.055 2.509-1.429 3.516-2.511 2.265-2.437 4.319-6.904 10.547-5.525 6.844,4.374 11.781,10.653 14.565,19.085-1.423,3.063.361,6.611-3.014,8.037z" fill-rule="evenodd"></path>
<path d="m87.895,58.912c-4.606-1.085-4.379-7.005-8.035-9.041-2.457-.298-3.623-1.206-5.526-1.004-5.268.558-7.668,7.476-11.551,7.534 .306-2.641 5.26-9.461 10.045-10.547 9.097-2.065 14.715,5.54 15.067,13.058z" fill-rule="evenodd"></path>
<path d="m40.683,53.387c-1.426,2.227.895,1.586 1.506,3.014 .906,1.971-2.744,1.709-3.516,2.009-.776.301-1.331,1.469-2.009,1.507-1.888.104-3.769-.55-5.524-1.507-.198-2.375.162-4.192.502-6.027-7.606-6.719-15.915,2.53-18.583,8.539-.511-.327-.519-1.155-1.507-1.004 .903-4.317 3.732-9.821 8.036-11.552 1.696-.682 4.499-1.784 5.524-2.009 5.621-1.23 9.021,2.42 11.552,6.027 2.804-1.291 1.029,1.491 4.019,1.003z" fill-rule="evenodd"></path>
<path d="m29.633,66.446c2.923,6.642-5.224,9.597-9.041,5.524v-4.52c1.478-2.489 6.723-3.507 9.041-1.004zm-5.525,4.018c1.239.066 2.42.076 3.013-.502 .073-1.579-1.287-1.726-2.51-2.009-.422.583-.663,1.346-.503,2.511z" fill-rule="evenodd"></path>
<path d="m78.351,66.949c2.692,4.042.17,9.733-6.024,8.035-5.09-4.133-.227-11.644 6.024-8.035zm-5.022,3.013c-.131,1.638.597,2.417 2.009,2.511 .637-.87 1.697-1.316 1.507-3.014-1.334.006-2.868-.189-3.516.503z" fill-rule="evenodd"></path>
<path d="m14.565,76.994c.676,4.138 3.118,10.518 7.534,12.556 2.441.097 4.801.114 6.027-1.004 1.182-1.793 3.087-2.799 4.52-4.52 .221-.266-.254-1.283 0-1.507 .835-.734 2.294-2.23 4.018-3.013-.608,7.093-5.451,9.951-9.543,13.561-1.726-.703-3.054.198-4.52,0-6.476-.872-12.357-11.724-8.036-16.073z" fill-rule="evenodd"></path>
<path d="m62.28,76.994h1.505c.401,3.114 1.215,5.818 2.011,8.538 3.563,2.18 7.192,4.074 11.049,2.512 2.062-.835 2.45-2.827 3.517-4.521 1.08-1.716 1.432-4.025 3.516-4.52 2.754.932-.97,3.129 0,5.524-2.972,1.549-3.755,5.288-6.53,7.032-11.038,1.478-16.913-4.83-15.068-14.565z" fill-rule="evenodd"></path>
<path d="m67.302,115.165c-2.017.008-1.396-2.621-1.506-4.521-1.834-5.197-3.984-10.08-6.53-14.565-1.864.312-2.298,2.056-5.022,1.507 .108-2.401 1.849-3.175 2.511-5.023 3.791-1.125 4.061.818 7.031,1.507 .844,6.808 9.815,15.044 3.516,21.095z" fill-rule="evenodd"></path>
<path d="m41.687,92.563c.916,1.172 3.173,6.468 0,7.032-2.137.463-.033-3.315-2.009-3.013-2.76,1.377-4.967,3.909-7.032,6.027-1.916,1.965-3.391,5.493-7.031,5.524 .413-3.826 3.944-5.77 6.027-8.036 2.257-2.456 4.407-4.955 6.529-7.534h3.516z" fill-rule="evenodd"></path>
<path d="m65.294,112.654c.275,3.121-1.752,3.941-3.516,5.021-1.417,4.276-4.839,6.548-5.526,11.553-2.185,1.5-3.351,4.394-6.529,5.022-4.396.869-12.307-2.105-14.063-5.022-1.585-2.637-.617-6.118-1.507-9.041-1.136-3.732-4.319-5.096-4.018-8.538 .407-.097.5-.504 1.004-.502 .447-.31.898-.607 1.004,0 7.433,4.614 5.904,19.26 17.077,17.577 7.055-1.06 7.553-15.078 16.074-16.07z" fill-rule="evenodd"></path>
<path d="m76.344,119.686h1.505c6.407,14.633 8.572,41.036.502,55.248-2.133-4.401.624-9.463 1.007-15.068 .894-13.121-.264-29.186-3.516-38.674 .587-.081.422-.916.502-1.506z" fill-rule="evenodd"></path>
<path d="m13.059,177.444c-5.44-.15-7.217-7.784-8.037-13.562-1.464-10.312 1.215-20.403 3.516-28.628 1.217-4.35 1.896-7.889 3.516-10.548h1.507c3.75,5.129-3.246,8.871-2.009,16.073-3.64,8.021-2.282,18.461-1.004,27.122 .081.589.916.424 1.506.501-1.918,3.378 2.237,6.417 1.005,9.042z" fill-rule="evenodd"></path>
<path d="m67.805,166.896c1.823,7.653 5.351,17.282 1.005,25.113-1.138,2.05-4.559,5.217-7.031,5.525-4.204.523-7.878-3.855-11.553-4.018-7.545-.335-11.199,10.45-20.09,8.537-2.41-.517-4.104-3.402-5.524-5.021-.775-7.701.27-12.834-1.507-18.082-1.99-5.876-8.116-10.134-7.534-19.086 .568-8.731 8.757-14.804 17.077-17.579 2.041-.68 9.379-.532 13.058.502 4.354,1.227 9.294,5.284 12.054,8.54 4.151,4.897 5.771,11.448 10.045,15.569zm-21.095,3.015c-5.457.165-9.876,5.654-11.05,10.045 4.375,2.851 9.24-1.515 14.063-1.005 2.755.292 3.619,1.986 6.529,2.511 4.299-5.435-4.776-11.695-9.542-11.551z" fill-rule="evenodd"></path>
<path d="m88.898,166.396c1.945.063 1.404,2.614 2.512,3.516-1.941,3.416-2.735,7.979-3.516,12.556-3.724,3.979-3.993,11.409-10.046,13.059 .143-3.088 1.847-5.716 3.014-8.035 1.163-2.308 2.17-4.767 4.019-6.53 .321-2.861.946-5.416 2.512-7.031-.086-3.102.419-5.612 1.505-7.535z" fill-rule="evenodd"></path>
<path d="m56.252,202.055c-1.819,2.65-6.442-.125-8.036-1.003-4.458.397-4.916,4.794-10.045,4.519 1.73-6.927 13.733-10.358 18.081-3.516z" fill-rule="evenodd"></path>
</svg>
